<svg width="240" height="50" viewBox="0 0 240 50" fill="none" xmlns="http://www.w3.org/2000/svg">
<g clip-path="url(#clip0_1572_55034)">
<path d="M191.221 40.7699L189.351 47.0899H188.551L186.931 41.6199L185.311 47.0899H184.521L182.641 40.7699H183.241L184.931 46.5699L186.681 40.7699H187.181L188.931 46.5699L190.621 40.7699H191.221ZM195.126 40.7699C196.186 40.7699 196.986 41.3499 196.986 42.7299V47.0899H196.406V42.6299C196.406 41.7399 195.866 41.2699 195.126 41.2699C194.156 41.2699 193.266 41.6299 192.506 42.0399V47.0899H191.926V38.6299H192.506V41.4799C193.266 41.1399 194.196 40.7699 195.126 40.7699ZM200.642 43.4399L202.672 43.1699V42.9299C202.672 41.6899 202.032 41.1899 200.592 41.1899C199.252 41.1899 198.612 41.9099 198.612 42.6999V42.8599H198.032V42.5999C198.032 41.6399 198.902 40.6699 200.592 40.6699C202.382 40.6699 203.252 41.4199 203.252 42.8299V47.0999H202.672V46.1599C202.472 46.6099 201.502 47.2199 200.342 47.2199C198.862 47.2199 197.832 46.6499 197.832 45.4899C197.832 44.2899 198.812 43.6799 200.642 43.4399ZM202.672 43.6899L200.642 43.9599C199.262 44.1399 198.412 44.4999 198.412 45.4899C198.412 46.2799 199.112 46.6999 200.342 46.6999C201.442 46.6999 202.672 46.0899 202.672 45.0199V43.6899ZM206.949 47.0899H206.299C205.349 47.0899 204.929 46.4199 204.929 45.4299V41.2899H203.999V40.7699H204.949V38.6299H205.549V40.7699H206.849V41.2899H205.549V45.4699C205.549 46.1399 205.729 46.5699 206.439 46.5699H206.949V47.0899ZM208.528 38.1299C208.798 38.1299 209.028 38.2899 209.098 38.6099C209.248 39.3099 208.658 40.1899 207.968 40.4799L207.748 40.1799C208.148 39.9899 208.478 39.6299 208.528 39.2099C208.218 39.1899 207.998 38.9899 207.998 38.6699C207.998 38.3399 208.258 38.1299 208.528 38.1299ZM212.942 47.2599C211.192 47.2599 210.182 46.4099 210.182 45.3099H210.782C210.782 46.1999 211.812 46.7399 212.942 46.7399C213.972 46.7399 215.052 46.3699 215.052 45.5199C215.052 44.7999 214.482 44.5299 213.502 44.2099L212.392 43.8499C211.032 43.4199 210.522 42.8599 210.522 42.1599C210.522 41.2399 211.502 40.6399 212.902 40.6399C214.452 40.6399 215.292 41.4499 215.292 42.2899H214.692C214.692 41.6599 213.932 41.1599 212.912 41.1599C211.882 41.1599 211.122 41.4799 211.122 42.1299C211.122 42.6599 211.482 42.9999 212.542 43.3399L213.552 43.6699C214.812 44.0799 215.652 44.5299 215.652 45.4999C215.652 46.5599 214.382 47.2599 212.942 47.2599ZM221.893 40.7599C222.953 40.7599 223.753 41.3299 223.753 42.7099V47.0899H223.173V42.6099C223.173 41.7199 222.633 41.2599 221.893 41.2599C220.923 41.2599 220.033 41.6199 219.273 42.0299V47.0899H218.693V40.7799H219.273V41.4699C220.033 41.1299 220.963 40.7599 221.893 40.7599ZM227.419 46.6999C228.759 46.6999 229.549 45.9799 229.549 45.1899V45.0799H230.129V45.2899C230.129 46.2499 229.109 47.2199 227.419 47.2199C225.629 47.2199 224.609 46.0499 224.609 44.5899V43.2699C224.609 41.8099 225.629 40.6399 227.419 40.6399C229.209 40.6399 230.229 41.8099 230.229 43.2699V44.1299H225.189V44.4899C225.189 45.7799 225.979 46.6999 227.419 46.6999ZM229.649 43.6399V43.3699C229.649 42.0799 228.859 41.1599 227.419 41.1599C225.979 41.1599 225.189 42.0799 225.189 43.3699V43.6399H229.649ZM239.356 40.7699L237.486 47.0899H236.686L235.066 41.6199L233.446 47.0899H232.656L230.776 40.7699H231.376L233.066 46.5699L234.816 40.7699H235.316L237.066 46.5699L238.756 40.7699H239.356Z" fill="white"/>
<path d="M19.18 35.0041V4.5481H21.34V17.3281H26.56V4.5481H28.72V35.0041H26.56V19.2001H21.34V35.0041H19.18ZM1 35.0041V4.5481H15.364V6.4201H3.16V17.8681H15.004V19.7401H3.16V33.1321H5.608C9.568 33.1321 13.132 32.9881 16.264 32.3401V34.2121C13.132 34.8601 9.568 35.0041 5.608 35.0041H1Z" fill="white"/>
<path d="M34.2891 11.928C34.2891 7.39199 37.8171 4.18799 43.4692 4.18799C49.1212 4.18799 52.6492 7.39199 52.6492 11.928V13.944C52.6492 18.12 49.1212 21.684 43.4692 21.684C37.8171 21.684 34.2891 18.12 34.2891 13.944V11.928ZM58.5892 26.724V4.54799H60.7492V12.288H65.4291V14.16H60.7492V26.724H58.5892ZM43.4692 19.812C47.7172 19.812 50.4892 17.148 50.4892 13.944V11.928C50.4892 8.36399 47.7172 6.05999 43.4692 6.05999C39.2211 6.05999 36.4491 8.36399 36.4491 11.928V13.944C36.4491 17.148 39.2211 19.812 43.4692 19.812ZM36.9892 24.852V33.132H61.1092V35.004H34.8292V24.852H36.9892Z" fill="white"/>
<path d="M72.4032 20.44L80.9632 7.08H72.2031V5H82.2031V1H84.6031V5H94.6031V7.08H85.8032L94.4032 20.44H91.9231L83.4032 7.2L74.8831 20.44H72.4032ZM101.003 21.16V12.56H92.6832V10.48H101.003V2.6H103.403V21.16H101.003ZM72.4032 30C72.4032 25.52 75.1632 23.56 79.8032 23.56H96.6031C101.243 23.56 104.003 25.52 104.003 30C104.003 34.48 101.243 36.44 96.6031 36.44H79.8032C75.1632 36.44 72.4032 34.48 72.4032 30ZM74.8031 30C74.8031 32.92 76.2432 34.36 79.8032 34.36H96.6031C100.163 34.36 101.603 32.92 101.603 30C101.603 27.08 100.163 25.64 96.6031 25.64H79.8032C76.2432 25.64 74.8031 27.08 74.8031 30Z" fill="white"/>
<path d="M125.069 11.0801H138.189V7.1201H125.069V5.0401H138.189V2.6001H140.589V27.2401H138.189V13.1601H125.069V11.0801ZM109.789 2.6001H112.189V18.5601H119.709C123.309 18.5601 126.869 18.2801 130.349 17.8401V19.9201C126.869 20.3601 123.309 20.6401 119.709 20.6401H109.789V2.6001ZM112.589 25.1601V34.3601H140.989V36.4401H110.189V25.1601H112.589Z" fill="white"/>
<path d="M156.725 4.5481H163.781C167.021 4.5481 169.829 6.4561 169.829 10.3081C169.829 14.1601 167.021 16.0681 163.781 16.0681H161.441V19.4521H170.801V21.3241H150.641V19.4521H159.281V16.0681H156.725C153.485 16.0681 150.676 14.1601 150.676 10.3081C150.676 6.4561 153.485 4.5481 156.725 4.5481ZM175.12 23.0521V4.5481H177.281V12.1081H181.961V13.9801H177.281V23.0521H175.12ZM152.837 10.3081C152.837 12.9361 154.565 14.1961 156.725 14.1961H163.781C165.941 14.1961 167.669 12.9361 167.669 10.3081C167.669 7.6801 165.941 6.4201 163.781 6.4201H156.725C154.565 6.4201 152.837 7.6801 152.837 10.3081ZM149.812 35.0041L156.293 25.2121H158.669L164.861 34.5721L171.053 25.2121H173.428L179.909 35.0041H177.641L172.241 26.7601L166.84 35.0041H162.881L157.48 26.7601L152.081 35.0041H149.812Z" fill="white"/>
<path d="M184.181 18.4441L197.141 4.5481H199.517L212.477 18.4441H209.741L198.329 6.1681L186.917 18.4441H184.181ZM203.729 35.0041V23.4841H192.929V35.0041H190.769V23.4841H184.109V21.6121H212.549V23.4841H205.889V35.0041H203.729Z" fill="white"/>
<mask id="mask0_1572_55034" style="mask-type:alpha" maskUnits="userSpaceOnUse" x="0" y="0" width="215" height="38">
<path d="M215 0H0V38H215V0Z" fill="white"/>
<path d="M19.18 35.0041V4.5481H21.34V17.3281H26.56V4.5481H28.72V35.0041H26.56V19.2001H21.34V35.0041H19.18ZM1 35.0041V4.5481H15.364V6.4201H3.16V17.8681H15.004V19.7401H3.16V33.1321H5.608C9.568 33.1321 13.132 32.9881 16.264 32.3401V34.2121C13.132 34.8601 9.568 35.0041 5.608 35.0041H1Z" fill="white"/>
<path d="M34.2891 11.928C34.2891 7.39199 37.8171 4.18799 43.4692 4.18799C49.1212 4.18799 52.6492 7.39199 52.6492 11.928V13.944C52.6492 18.12 49.1212 21.684 43.4692 21.684C37.8171 21.684 34.2891 18.12 34.2891 13.944V11.928ZM58.5892 26.724V4.54799H60.7492V12.288H65.4291V14.16H60.7492V26.724H58.5892ZM43.4692 19.812C47.7172 19.812 50.4892 17.148 50.4892 13.944V11.928C50.4892 8.36399 47.7172 6.05999 43.4692 6.05999C39.2211 6.05999 36.4491 8.36399 36.4491 11.928V13.944C36.4491 17.148 39.2211 19.812 43.4692 19.812ZM36.9892 24.852V33.132H61.1092V35.004H34.8292V24.852H36.9892Z" fill="white"/>
<path d="M72.4032 20.44L80.9632 7.08H72.2031V5H82.2031V1H84.6031V5H94.6031V7.08H85.8032L94.4032 20.44H91.9231L83.4032 7.2L74.8831 20.44H72.4032ZM101.003 21.16V12.56H92.6832V10.48H101.003V2.6H103.403V21.16H101.003ZM72.4032 30C72.4032 25.52 75.1632 23.56 79.8032 23.56H96.6031C101.243 23.56 104.003 25.52 104.003 30C104.003 34.48 101.243 36.44 96.6031 36.44H79.8032C75.1632 36.44 72.4032 34.48 72.4032 30ZM74.8031 30C74.8031 32.92 76.2432 34.36 79.8032 34.36H96.6031C100.163 34.36 101.603 32.92 101.603 30C101.603 27.08 100.163 25.64 96.6031 25.64H79.8032C76.2432 25.64 74.8031 27.08 74.8031 30Z" fill="white"/>
<path d="M125.069 11.0801H138.189V7.1201H125.069V5.0401H138.189V2.6001H140.589V27.2401H138.189V13.1601H125.069V11.0801ZM109.789 2.6001H112.189V18.5601H119.709C123.309 18.5601 126.869 18.2801 130.349 17.8401V19.9201C126.869 20.3601 123.309 20.6401 119.709 20.6401H109.789V2.6001ZM112.589 25.1601V34.3601H140.989V36.4401H110.189V25.1601H112.589Z" fill="white"/>
<path d="M156.725 4.5481H163.781C167.021 4.5481 169.829 6.4561 169.829 10.3081C169.829 14.1601 167.021 16.0681 163.781 16.0681H161.441V19.4521H170.801V21.3241H150.641V19.4521H159.281V16.0681H156.725C153.485 16.0681 150.676 14.1601 150.676 10.3081C150.676 6.4561 153.485 4.5481 156.725 4.5481ZM175.12 23.0521V4.5481H177.281V12.1081H181.961V13.9801H177.281V23.0521H175.12ZM152.837 10.3081C152.837 12.9361 154.565 14.1961 156.725 14.1961H163.781C165.941 14.1961 167.669 12.9361 167.669 10.3081C167.669 7.6801 165.941 6.4201 163.781 6.4201H156.725C154.565 6.4201 152.837 7.6801 152.837 10.3081ZM149.812 35.0041L156.293 25.2121H158.669L164.861 34.5721L171.053 25.2121H173.428L179.909 35.0041H177.641L172.241 26.7601L166.84 35.0041H162.881L157.48 26.7601L152.081 35.0041H149.812Z" fill="white"/>
<path d="M184.181 18.4441L197.141 4.5481H199.517L212.477 18.4441H209.741L198.329 6.1681L186.917 18.4441H184.181ZM203.729 35.0041V23.4841H192.929V35.0041H190.769V23.4841H184.109V21.6121H212.549V23.4841H205.889V35.0041H203.729Z" fill="white"/>
</mask>
<g mask="url(#mask0_1572_55034)">
<path d="M19.18 35.004H18.18V36.004H19.18V35.004ZM19.18 4.548V3.548H18.18V4.548H19.18ZM21.34 4.548H22.34V3.548H21.34V4.548ZM21.34 17.328H20.34V18.328H21.34V17.328ZM26.56 17.328V18.328H27.56V17.328H26.56ZM26.56 4.548V3.548H25.56V4.548H26.56ZM28.72 4.548H29.72V3.548H28.72V4.548ZM28.72 35.004V36.004H29.72V35.004H28.72ZM26.56 35.004H25.56V36.004H26.56V35.004ZM26.56 19.2H27.56V18.2H26.56V19.2ZM21.34 19.2V18.2H20.34V19.2H21.34ZM21.34 35.004V36.004H22.34V35.004H21.34ZM1 35.004H0V36.004H1V35.004ZM1 4.548V3.548H0V4.548H1ZM15.364 4.548H16.364V3.548H15.364V4.548ZM15.364 6.42V7.42H16.364V6.42H15.364ZM3.16 6.42V5.42H2.16V6.42H3.16ZM3.16 17.868H2.16V18.868H3.16V17.868ZM15.004 17.868H16.004V16.868H15.004V17.868ZM15.004 19.74V20.74H16.004V19.74H15.004ZM3.16 19.74V18.74H2.16V19.74H3.16ZM3.16 33.132H2.16V34.132H3.16V33.132ZM16.264 32.34H17.264V31.1119L16.0614 31.3607L16.264 32.34ZM16.264 34.212L16.4666 35.1913L17.264 35.0263V34.212H16.264ZM58.5888 26.724H57.5888V27.724H58.5888V26.724ZM58.5888 4.548V3.548H57.5888V4.548H58.5888ZM60.7488 4.548H61.7488V3.548H60.7488V4.548ZM60.7488 12.288H59.7488V13.288H60.7488V12.288ZM65.4287 12.288H66.4287V11.288H65.4287V12.288ZM65.4287 14.16V15.16H66.4287V14.16H65.4287ZM60.7488 14.16V13.16H59.7488V14.16H60.7488ZM60.7488 26.724V27.724H61.7488V26.724H60.7488ZM36.9888 24.852H37.9888V23.852H36.9888V24.852ZM36.9888 33.132H35.9888V34.132H36.9888V33.132ZM61.1088 33.132H62.1088V32.132H61.1088V33.132ZM61.1088 35.004V36.004H62.1088V35.004H61.1088ZM34.8288 35.004H33.8288V36.004H34.8288V35.004ZM34.8288 24.852V23.852H33.8288V24.852H34.8288ZM72.4013 20.44L71.5593 19.9005L70.5729 21.44H72.4013V20.44ZM80.9613 7.08L81.8032 7.61948L82.7896 6.08H80.9613V7.08ZM72.2012 7.08H71.2012V8.08H72.2012V7.08ZM72.2012 5V4H71.2012V5H72.2012ZM82.2012 5V6H83.2012V5H82.2012ZM82.2012 1V0H81.2012V1H82.2012ZM84.6012 1H85.6012V0H84.6012V1ZM84.6012 5H83.6012V6H84.6012V5ZM94.6012 5H95.6012V4H94.6012V5ZM94.6012 7.08V8.08H95.6012V7.08H94.6012ZM85.8013 7.08V6.08H83.9683L84.9604 7.62127L85.8013 7.08ZM94.4013 20.44V21.44H96.2342L95.2421 19.8987L94.4013 20.44ZM91.9212 20.44L91.0803 20.9811L91.3756 21.44H91.9212V20.44ZM83.4013 7.2L84.2422 6.65886L83.4013 5.35206L82.5603 6.65886L83.4013 7.2ZM74.8812 20.44V21.44H75.4269L75.7222 20.9811L74.8812 20.44ZM101.001 21.16H100.001V22.16H101.001V21.16ZM101.001 12.56H102.001V11.56H101.001V12.56ZM92.6813 12.56H91.6813V13.56H92.6813V12.56ZM92.6813 10.48V9.48H91.6813V10.48H92.6813ZM101.001 10.48V11.48H102.001V10.48H101.001ZM101.001 2.6V1.6H100.001V2.6H101.001ZM103.401 2.6H104.401V1.6H103.401V2.6ZM103.401 21.16V22.16H104.401V21.16H103.401ZM125.069 11.08V10.08H124.069V11.08H125.069ZM138.189 11.08V12.08H139.189V11.08H138.189ZM138.189 7.12H139.189V6.12H138.189V7.12ZM125.069 7.12H124.069V8.12H125.069V7.12ZM125.069 5.04V4.04H124.069V5.04H125.069ZM138.189 5.04V6.04H139.189V5.04H138.189ZM138.189 2.6V1.6H137.189V2.6H138.189ZM140.589 2.6H141.589V1.6H140.589V2.6ZM140.589 27.24V28.24H141.589V27.24H140.589ZM138.189 27.24H137.189V28.24H138.189V27.24ZM138.189 13.16H139.189V12.16H138.189V13.16ZM125.069 13.16H124.069V14.16H125.069V13.16ZM109.789 2.6V1.6H108.789V2.6H109.789ZM112.189 2.6H113.189V1.6H112.189V2.6ZM112.189 18.56H111.189V19.56H112.189V18.56ZM130.349 17.84H131.349V16.7056L130.223 16.8479L130.349 17.84ZM130.349 19.92L130.474 20.9121L131.349 20.8015V19.92H130.349ZM109.789 20.64H108.789V21.64H109.789V20.64ZM112.589 25.16H113.589V24.16H112.589V25.16ZM112.589 34.36H111.589V35.36H112.589V34.36ZM140.989 34.36H141.989V33.36H140.989V34.36ZM140.989 36.44V37.44H141.989V36.44H140.989ZM110.189 36.44H109.189V37.44H110.189V36.44ZM110.189 25.16V24.16H109.189V25.16H110.189ZM161.44 16.068V15.068H160.44V16.068H161.44ZM161.44 19.452H160.44V20.452H161.44V19.452ZM170.8 19.452H171.8V18.452H170.8V19.452ZM170.8 21.324V22.324H171.8V21.324H170.8ZM150.64 21.324H149.64V22.324H150.64V21.324ZM150.64 19.452V18.452H149.64V19.452H150.64ZM159.28 19.452V20.452H160.28V19.452H159.28ZM159.28 16.068H160.28V15.068H159.28V16.068ZM175.12 23.052H174.12V24.052H175.12V23.052ZM175.12 4.548V3.548H174.12V4.548H175.12ZM177.28 4.548H178.28V3.548H177.28V4.548ZM177.28 12.108H176.28V13.108H177.28V12.108ZM181.96 12.108H182.96V11.108H181.96V12.108ZM181.96 13.98V14.98H182.96V13.98H181.96ZM177.28 13.98V12.98H176.28V13.98H177.28ZM177.28 23.052V24.052H178.28V23.052H177.28ZM149.812 35.004L148.978 34.4521L147.951 36.004H149.812V35.004ZM156.292 25.212V24.212H155.755L155.458 24.6601L156.292 25.212ZM158.668 25.212L159.502 24.6603L159.205 24.212H158.668V25.212ZM164.86 34.572L164.026 35.1237L164.86 36.004L165.694 35.1237L164.86 34.572ZM171.052 25.212V24.212H170.515L170.218 24.6603L171.052 25.212ZM173.428 25.212L174.262 24.6601L173.965 24.212H173.428V25.212ZM179.908 35.004V36.004H181.769L180.742 34.4521L179.908 35.004ZM177.64 35.004L176.803 35.5519L177.1 36.004H177.64V35.004ZM172.24 26.76L173.077 26.2121L172.24 24.935L171.403 26.2121L172.24 26.76ZM166.84 35.004V36.004H167.38L167.677 35.5519L166.84 35.004ZM162.88 35.004L162.043 35.5519L162.34 36.004H162.88V35.004ZM157.48 26.76L158.317 26.2121L157.48 24.935L156.643 26.2121L157.48 26.76ZM152.08 35.004V36.004H152.62L152.917 35.5519L152.08 35.004ZM184.181 18.444L183.449 17.762L181.881 19.444H184.181V18.444ZM197.141 4.548V3.548H196.706L196.409 3.86595L197.141 4.548ZM199.517 4.548L200.248 3.86595L199.952 3.548H199.517V4.548ZM212.477 18.444V19.444H214.777L213.208 17.762L212.477 18.444ZM209.741 18.444L209.008 19.1249L209.305 19.444H209.741V18.444ZM198.329 6.168L199.061 5.48714L198.329 4.69927L197.596 5.48714L198.329 6.168ZM186.917 18.444V19.444H187.352L187.649 19.1249L186.917 18.444ZM203.729 35.004H202.729V36.004H203.729V35.004ZM203.729 23.484H204.729V22.484H203.729V23.484ZM192.929 23.484V22.484H191.929V23.484H192.929ZM192.929 35.004V36.004H193.929V35.004H192.929ZM190.769 35.004H189.769V36.004H190.769V35.004ZM190.769 23.484H191.769V22.484H190.769V23.484ZM184.109 23.484H183.109V24.484H184.109V23.484ZM184.109 21.612V20.612H183.109V21.612H184.109ZM212.549 21.612H213.549V20.612H212.549V21.612ZM212.549 23.484V24.484H213.549V23.484H212.549ZM205.889 23.484V22.484H204.889V23.484H205.889ZM205.889 35.004V36.004H206.889V35.004H205.889ZM20.18 35.004V4.548H18.18V35.004H20.18ZM19.18 5.548H21.34V3.548H19.18V5.548ZM20.34 4.548V17.328H22.34V4.548H20.34ZM21.34 18.328H26.56V16.328H21.34V18.328ZM27.56 17.328V4.548H25.56V17.328H27.56ZM26.56 5.548H28.72V3.548H26.56V5.548ZM27.72 4.548V35.004H29.72V4.548H27.72ZM28.72 34.004H26.56V36.004H28.72V34.004ZM27.56 35.004V19.2H25.56V35.004H27.56ZM26.56 18.2H21.34V20.2H26.56V18.2ZM20.34 19.2V35.004H22.34V19.2H20.34ZM21.34 34.004H19.18V36.004H21.34V34.004ZM2 35.004V4.548H0V35.004H2ZM1 5.548H15.364V3.548H1V5.548ZM14.364 4.548V6.42H16.364V4.548H14.364ZM15.364 5.42H3.16V7.42H15.364V5.42ZM2.16 6.42V17.868H4.16V6.42H2.16ZM3.16 18.868H15.004V16.868H3.16V18.868ZM14.004 17.868V19.74H16.004V17.868H14.004ZM15.004 18.74H3.16V20.74H15.004V18.74ZM2.16 19.74V33.132H4.16V19.74H2.16ZM3.16 34.132H5.608V32.132H3.16V34.132ZM5.608 34.132C9.57883 34.132 13.2288 33.9892 16.4666 33.3193L16.0614 31.3607C13.0352 31.9868 9.55717 32.132 5.608 32.132V34.132ZM15.264 32.34V34.212H17.264V32.34H15.264ZM16.0614 33.2327C13.0352 33.8588 9.55717 34.004 5.608 34.004V36.004C9.57883 36.004 13.2288 35.8612 16.4666 35.1913L16.0614 33.2327ZM5.608 34.004H1V36.004H5.608V34.004ZM35.2887 11.928C35.2887 9.93649 36.0547 8.28343 37.4118 7.11474C38.7811 5.93555 40.8272 5.188 43.4688 5.188V3.188C40.4583 3.188 37.9144 4.04244 36.1067 5.59926C34.2868 7.16657 33.2887 9.38351 33.2887 11.928H35.2887ZM43.4688 5.188C46.1103 5.188 48.1564 5.93555 49.5257 7.11474C50.8828 8.28343 51.6488 9.93649 51.6488 11.928H53.6488C53.6488 9.38351 52.6507 7.16657 50.8308 5.59926C49.0231 4.04244 46.4792 3.188 43.4688 3.188V5.188ZM51.6488 11.928V13.944H53.6488V11.928H51.6488ZM51.6488 13.944C51.6488 17.4609 48.6817 20.684 43.4688 20.684V22.684C49.5598 22.684 53.6488 18.7791 53.6488 13.944H51.6488ZM43.4688 20.684C38.2558 20.684 35.2887 17.4609 35.2887 13.944H33.2887C33.2887 18.7791 37.3777 22.684 43.4688 22.684V20.684ZM35.2887 13.944V11.928H33.2887V13.944H35.2887ZM59.5888 26.724V4.548H57.5888V26.724H59.5888ZM58.5888 5.548H60.7488V3.548H58.5888V5.548ZM59.7488 4.548V12.288H61.7488V4.548H59.7488ZM60.7488 13.288H65.4287V11.288H60.7488V13.288ZM64.4287 12.288V14.16H66.4287V12.288H64.4287ZM65.4287 13.16H60.7488V15.16H65.4287V13.16ZM59.7488 14.16V26.724H61.7488V14.16H59.7488ZM60.7488 25.724H58.5888V27.724H60.7488V25.724ZM43.4688 20.812C48.1352 20.812 51.4888 17.8252 51.4888 13.944H49.4888C49.4888 16.4708 47.2983 18.812 43.4688 18.812V20.812ZM51.4888 13.944V11.928H49.4888V13.944H51.4888ZM51.4888 11.928C51.4888 9.86547 50.6762 8.11126 49.2125 6.88974C47.7668 5.6832 45.7658 5.06 43.4688 5.06V7.06C45.4197 7.06 46.9287 7.5888 47.931 8.42526C48.9153 9.24674 49.4888 10.4265 49.4888 11.928H51.4888ZM43.4688 5.06C41.1717 5.06 39.1707 5.6832 37.725 6.88974C36.2613 8.11126 35.4487 9.86547 35.4487 11.928H37.4487C37.4487 10.4265 38.0222 9.24674 39.0065 8.42526C40.0088 7.5888 41.5178 7.06 43.4688 7.06V5.06ZM35.4487 11.928V13.944H37.4487V11.928H35.4487ZM35.4487 13.944C35.4487 17.8252 38.8023 20.812 43.4688 20.812V18.812C39.6392 18.812 37.4487 16.4708 37.4487 13.944H35.4487ZM35.9888 24.852V33.132H37.9888V24.852H35.9888ZM36.9888 34.132H61.1088V32.132H36.9888V34.132ZM60.1088 33.132V35.004H62.1088V33.132H60.1088ZM61.1088 34.004H34.8288V36.004H61.1088V34.004ZM35.8288 35.004V24.852H33.8288V35.004H35.8288ZM34.8288 25.852H36.9888V23.852H34.8288V25.852ZM73.2432 20.9795L81.8032 7.61948L80.1193 6.54052L71.5593 19.9005L73.2432 20.9795ZM80.9613 6.08H72.2012V8.08H80.9613V6.08ZM73.2012 7.08V5H71.2012V7.08H73.2012ZM72.2012 6H82.2012V4H72.2012V6ZM83.2012 5V1H81.2012V5H83.2012ZM82.2012 2H84.6012V0H82.2012V2ZM83.6012 1V5H85.6012V1H83.6012ZM84.6012 6H94.6012V4H84.6012V6ZM93.6012 5V7.08H95.6012V5H93.6012ZM94.6012 6.08H85.8013V8.08H94.6012V6.08ZM84.9604 7.62127L93.5604 20.9813L95.2421 19.8987L86.6421 6.53873L84.9604 7.62127ZM94.4013 19.44H91.9212V21.44H94.4013V19.44ZM92.7622 19.8989L84.2422 6.65886L82.5603 7.74114L91.0803 20.9811L92.7622 19.8989ZM82.5603 6.65886L74.0403 19.8989L75.7222 20.9811L84.2422 7.74114L82.5603 6.65886ZM74.8812 19.44H72.4013V21.44H74.8812V19.44ZM102.001 21.16V12.56H100.001V21.16H102.001ZM101.001 11.56H92.6813V13.56H101.001V11.56ZM93.6813 12.56V10.48H91.6813V12.56H93.6813ZM92.6813 11.48H101.001V9.48H92.6813V11.48ZM102.001 10.48V2.6H100.001V10.48H102.001ZM101.001 3.6H103.401V1.6H101.001V3.6ZM102.401 2.6V21.16H104.401V2.6H102.401ZM103.401 20.16H101.001V22.16H103.401V20.16ZM73.4013 30C73.4013 27.975 74.0154 26.6835 74.9984 25.8707C76.0169 25.0287 77.5986 24.56 79.8013 24.56V22.56C77.3639 22.56 75.2456 23.0713 73.7241 24.3293C72.1671 25.6165 71.4013 27.545 71.4013 30H73.4013ZM79.8013 24.56H96.6012V22.56H79.8013V24.56ZM96.6012 24.56C98.8039 24.56 100.386 25.0287 101.404 25.8707C102.387 26.6835 103.001 27.975 103.001 30H105.001C105.001 27.545 104.235 25.6165 102.678 24.3293C101.157 23.0713 99.0386 22.56 96.6012 22.56V24.56ZM103.001 30C103.001 32.025 102.387 33.3165 101.404 34.1293C100.386 34.9713 98.8039 35.44 96.6012 35.44V37.44C99.0386 37.44 101.157 36.9287 102.678 35.6707C104.235 34.3835 105.001 32.455 105.001 30H103.001ZM96.6012 35.44H79.8013V37.44H96.6012V35.44ZM79.8013 35.44C77.5986 35.44 76.0169 34.9713 74.9984 34.1293C74.0154 33.3165 73.4013 32.025 73.4013 30H71.4013C71.4013 32.455 72.1671 34.3835 73.7241 35.6707C75.2456 36.9287 77.3639 37.44 79.8013 37.44V35.44ZM73.8012 30C73.8012 31.6116 74.2002 33.0302 75.297 34.0181C76.3697 34.9841 77.917 35.36 79.8013 35.36V33.36C78.1255 33.36 77.1729 33.0159 76.6355 32.5319C76.1223 32.0698 75.8012 31.3084 75.8012 30H73.8012ZM79.8013 35.36H96.6012V33.36H79.8013V35.36ZM96.6012 35.36C98.4855 35.36 100.033 34.9841 101.105 34.0181C102.202 33.0302 102.601 31.6116 102.601 30H100.601C100.601 31.3084 100.28 32.0698 99.767 32.5319C99.2296 33.0159 98.277 33.36 96.6012 33.36V35.36ZM102.601 30C102.601 28.3884 102.202 26.9698 101.105 25.9819C100.033 25.0159 98.4855 24.64 96.6012 24.64V26.64C98.277 26.64 99.2296 26.9841 99.767 27.4681C100.28 27.9302 100.601 28.6916 100.601 30H102.601ZM96.6012 24.64H79.8013V26.64H96.6012V24.64ZM79.8013 24.64C77.917 24.64 76.3697 25.0159 75.297 25.9819C74.2002 26.9698 73.8012 28.3884 73.8012 30H75.8012C75.8012 28.6916 76.1223 27.9302 76.6355 27.4681C77.1729 26.9841 78.1255 26.64 79.8013 26.64V24.64ZM125.069 12.08H138.189V10.08H125.069V12.08ZM139.189 11.08V7.12H137.189V11.08H139.189ZM138.189 6.12H125.069V8.12H138.189V6.12ZM126.069 7.12V5.04H124.069V7.12H126.069ZM125.069 6.04H138.189V4.04H125.069V6.04ZM139.189 5.04V2.6H137.189V5.04H139.189ZM138.189 3.6H140.589V1.6H138.189V3.6ZM139.589 2.6V27.24H141.589V2.6H139.589ZM140.589 26.24H138.189V28.24H140.589V26.24ZM139.189 27.24V13.16H137.189V27.24H139.189ZM138.189 12.16H125.069V14.16H138.189V12.16ZM126.069 13.16V11.08H124.069V13.16H126.069ZM109.789 3.6H112.189V1.6H109.789V3.6ZM111.189 2.6V18.56H113.189V2.6H111.189ZM112.189 19.56H119.709V17.56H112.189V19.56ZM119.709 19.56C123.36 19.56 126.963 19.276 130.474 18.8321L130.223 16.8479C126.775 17.284 123.257 17.56 119.709 17.56V19.56ZM129.349 17.84V19.92H131.349V17.84H129.349ZM130.223 18.9279C126.775 19.364 123.257 19.64 119.709 19.64V21.64C123.36 21.64 126.963 21.356 130.474 20.9121L130.223 18.9279ZM119.709 19.64H109.789V21.64H119.709V19.64ZM110.789 20.64V2.6H108.789V20.64H110.789ZM111.589 25.16V34.36H113.589V25.16H111.589ZM112.589 35.36H140.989V33.36H112.589V35.36ZM139.989 34.36V36.44H141.989V34.36H139.989ZM140.989 35.44H110.189V37.44H140.989V35.44ZM111.189 36.44V25.16H109.189V36.44H111.189ZM110.189 26.16H112.589V24.16H110.189V26.16ZM156.724 5.548H163.78V3.548H156.724V5.548ZM163.78 5.548C165.213 5.548 166.476 5.97008 167.364 6.73949C168.233 7.49133 168.828 8.64562 168.828 10.308H170.828C170.828 8.11838 170.019 6.39267 168.674 5.22751C167.348 4.07991 165.587 3.548 163.78 3.548V5.548ZM168.828 10.308C168.828 11.9704 168.233 13.1247 167.364 13.8765C166.476 14.6459 165.213 15.068 163.78 15.068V17.068C165.587 17.068 167.348 16.5361 168.674 15.3885C170.019 14.2233 170.828 12.4976 170.828 10.308H168.828ZM163.78 15.068H161.44V17.068H163.78V15.068ZM160.44 16.068V19.452H162.44V16.068H160.44ZM161.44 20.452H170.8V18.452H161.44V20.452ZM169.8 19.452V21.324H171.8V19.452H169.8ZM170.8 20.324H150.64V22.324H170.8V20.324ZM151.64 21.324V19.452H149.64V21.324H151.64ZM150.64 20.452H159.28V18.452H150.64V20.452ZM160.28 19.452V16.068H158.28V19.452H160.28ZM159.28 15.068H156.724V17.068H159.28V15.068ZM156.724 15.068C155.291 15.068 154.028 14.6459 153.14 13.8765C152.271 13.1247 151.676 11.9704 151.676 10.308H149.676C149.676 12.4976 150.485 14.2233 151.83 15.3885C153.156 16.5361 154.917 17.068 156.724 17.068V15.068ZM151.676 10.308C151.676 8.64562 152.271 7.49133 153.14 6.73949C154.028 5.97008 155.291 5.548 156.724 5.548V3.548C154.917 3.548 153.156 4.07991 151.83 5.22751C150.485 6.39267 149.676 8.11838 149.676 10.308H151.676ZM176.12 23.052V4.548H174.12V23.052H176.12ZM175.12 5.548H177.28V3.548H175.12V5.548ZM176.28 4.548V12.108H178.28V4.548H176.28ZM177.28 13.108H181.96V11.108H177.28V13.108ZM180.96 12.108V13.98H182.96V12.108H180.96ZM181.96 12.98H177.28V14.98H181.96V12.98ZM176.28 13.98V23.052H178.28V13.98H176.28ZM177.28 22.052H175.12V24.052H177.28V22.052ZM151.836 10.308C151.836 11.8529 152.352 13.1107 153.294 13.9747C154.222 14.8253 155.457 15.196 156.724 15.196V13.196C155.831 13.196 155.122 12.9367 154.646 12.5003C154.184 12.0773 153.836 11.3911 153.836 10.308H151.836ZM156.724 15.196H163.78V13.196H156.724V15.196ZM163.78 15.196C165.047 15.196 166.282 14.8253 167.21 13.9747C168.152 13.1107 168.668 11.8529 168.668 10.308H166.668C166.668 11.3911 166.32 12.0773 165.858 12.5003C165.382 12.9367 164.673 13.196 163.78 13.196V15.196ZM168.668 10.308C168.668 8.76313 168.152 7.50526 167.21 6.64134C166.282 5.7907 165.047 5.42 163.78 5.42V7.42C164.673 7.42 165.382 7.6793 165.858 8.11565C166.32 8.53874 166.668 9.22487 166.668 10.308H168.668ZM163.78 5.42H156.724V7.42H163.78V5.42ZM156.724 5.42C155.457 5.42 154.222 5.7907 153.294 6.64134C152.352 7.50526 151.836 8.76313 151.836 10.308H153.836C153.836 9.22487 154.184 8.53874 154.646 8.11565C155.122 7.6793 155.831 7.42 156.724 7.42V5.42ZM150.646 35.5559L157.126 25.7639L155.458 24.6601L148.978 34.4521L150.646 35.5559ZM156.292 26.212H158.668V24.212H156.292V26.212ZM157.834 25.7637L164.026 35.1237L165.694 34.0203L159.502 24.6603L157.834 25.7637ZM165.694 35.1237L171.886 25.7637L170.218 24.6603L164.026 34.0203L165.694 35.1237ZM171.052 26.212H173.428V24.212H171.052V26.212ZM172.594 25.7639L179.074 35.5559L180.742 34.4521L174.262 24.6601L172.594 25.7639ZM179.908 34.004H177.64V36.004H179.908V34.004ZM178.477 34.4561L173.077 26.2121L171.403 27.3079L176.803 35.5519L178.477 34.4561ZM171.403 26.2121L166.003 34.4561L167.677 35.5519L173.077 27.3079L171.403 26.2121ZM166.84 34.004H162.88V36.004H166.84V34.004ZM163.717 34.4561L158.317 26.2121L156.643 27.3079L162.043 35.5519L163.717 34.4561ZM156.643 26.2121L151.243 34.4561L152.917 35.5519L158.317 27.3079L156.643 26.2121ZM152.08 34.004H149.812V36.004H152.08V34.004ZM184.912 19.126L197.872 5.23005L196.409 3.86595L183.449 17.762L184.912 19.126ZM197.141 5.548H199.517V3.548H197.141V5.548ZM198.785 5.23005L211.745 19.126L213.208 17.762L200.248 3.86595L198.785 5.23005ZM212.477 17.444H209.741V19.444H212.477V17.444ZM210.473 17.7631L199.061 5.48714L197.596 6.84886L209.008 19.1249L210.473 17.7631ZM197.596 5.48714L186.184 17.7631L187.649 19.1249L199.061 6.84886L197.596 5.48714ZM186.917 17.444H184.181V19.444H186.917V17.444ZM204.729 35.004V23.484H202.729V35.004H204.729ZM203.729 22.484H192.929V24.484H203.729V22.484ZM191.929 23.484V35.004H193.929V23.484H191.929ZM192.929 34.004H190.769V36.004H192.929V34.004ZM191.769 35.004V23.484H189.769V35.004H191.769ZM190.769 22.484H184.109V24.484H190.769V22.484ZM185.109 23.484V21.612H183.109V23.484H185.109ZM184.109 22.612H212.549V20.612H184.109V22.612ZM211.549 21.612V23.484H213.549V21.612H211.549ZM212.549 22.484H205.889V24.484H212.549V22.484ZM204.889 23.484V35.004H206.889V23.484H204.889ZM205.889 34.004H203.729V36.004H205.889V34.004Z" fill="white"/>
</g>
<path d="M151 42C162.129 49.4432 168.371 49.4432 179.5 42" stroke="white" stroke-width="3"/>
<path d="M43.5859 8.08008C43.5859 10.8415 41.3473 13.0801 38.5859 13.0801C41.3473 13.0801 43.5859 15.3187 43.5859 18.0801C43.5859 15.3187 45.8245 13.0801 48.5859 13.0801C45.8245 13.0801 43.5859 10.8415 43.5859 8.08008Z" fill="white"/>
</g>
<defs>
<clipPath id="clip0_1572_55034">
<rect width="240" height="50" fill="white"/>
</clipPath>
</defs>
</svg>
