<svg width="60" height="28" viewBox="0 0 60 28" fill="none" xmlns="http://www.w3.org/2000/svg">
<path d="M0 10C0 4.47715 4.47715 0 10 0H60V18C60 23.5228 55.5228 28 50 28H0V10Z" fill="#E7F5E8"/>
<path d="M20.0996 9.11914C20.0996 10.9473 21.5234 12.6348 23.9316 13.3203L23.1582 14.6387C21.3477 14.1201 20.0029 13.0039 19.3086 11.5625C18.6143 13.1885 17.2344 14.4453 15.3887 15.043L14.5625 13.7246C16.9707 13.0215 18.4473 11.1582 18.4473 9.11914V8.92578H15.0195V7.57227H18.4473V5.67383H20.1172V7.57227H23.5273V8.92578H20.0996V9.11914ZM26.9551 5.74414V9.7168H29.2402V11.0879H26.9551V15.3418H25.2852V5.74414H26.9551ZM21.875 15.7109C25.127 15.7109 27.0957 16.748 27.0957 18.5938C27.0957 20.4043 25.127 21.459 21.875 21.459C18.5879 21.459 16.584 20.4043 16.584 18.5938C16.584 16.748 18.5879 15.7109 21.875 15.7109ZM21.875 17.0117C19.5723 17.0117 18.2363 17.5566 18.2539 18.5938C18.2363 19.5957 19.5723 20.1758 21.875 20.1758C24.1426 20.1758 25.4609 19.5957 25.4609 18.5938C25.4609 17.5566 24.1426 17.0117 21.875 17.0117ZM34.4961 6.46484C36.5703 6.44727 38.1699 7.65137 38.5215 9.41797H41.5977V5.74414H43.2676V14.1992H41.5977V10.7891H38.5391C38.1963 12.5996 36.5879 13.8125 34.4961 13.8125C32.0879 13.8125 30.3652 12.3008 30.3652 10.1211C30.3652 7.97656 32.0879 6.44727 34.4961 6.46484ZM34.4961 7.85352C33.002 7.85352 31.9648 8.76758 31.9648 10.1211C31.9648 11.4746 33.002 12.4062 34.4961 12.4062C35.9551 12.4062 36.9922 11.4746 36.9922 10.1211C36.9922 8.76758 35.9551 7.85352 34.4961 7.85352ZM34.6543 14.9551V16.7832H41.5977V14.9551H43.2676V21.3008H33.002V14.9551H34.6543ZM34.6543 19.9297H41.5977V18.1016H34.6543V19.9297Z" fill="#222222"/>
</svg>
