<svg width="60" height="28" viewBox="0 0 60 28" fill="none" xmlns="http://www.w3.org/2000/svg">
<path d="M0 10C0 4.47715 4.47715 0 10 0H60V18C60 23.5228 55.5228 28 50 28H0V10Z" fill="#E3F3FF"/>
<path d="M20.6621 8.78516C20.6621 10.2793 22.0684 11.5625 24.3711 12.0547L23.6855 13.3555C21.875 12.9512 20.5479 12.0459 19.8535 10.8418C19.1768 12.1514 17.8232 13.1357 15.9512 13.5664L15.248 12.2656C17.5684 11.7734 18.9922 10.3496 18.9922 8.78516H15.5996V7.4668H18.9922V5.7793H20.6621V7.4668H24.0371V8.78516H20.6621ZM27.6758 5.76172V21.4941H26.0234V5.76172H27.6758ZM14.5625 14.5332C17.5508 14.5332 21.5059 14.5156 24.9336 14.0762L25.0566 15.2891C23.6152 15.5264 22.1299 15.6758 20.6797 15.7637V21.0195H19.0098V15.8516C17.498 15.9131 16.0566 15.9219 14.791 15.9219L14.5625 14.5332ZM34.4961 6.46484C36.5703 6.44727 38.1699 7.65137 38.5215 9.41797H41.5977V5.74414H43.2676V14.1992H41.5977V10.7891H38.5391C38.1963 12.5996 36.5879 13.8125 34.4961 13.8125C32.0879 13.8125 30.3652 12.3008 30.3652 10.1211C30.3652 7.97656 32.0879 6.44727 34.4961 6.46484ZM34.4961 7.85352C33.002 7.85352 31.9648 8.76758 31.9648 10.1211C31.9648 11.4746 33.002 12.4062 34.4961 12.4062C35.9551 12.4062 36.9922 11.4746 36.9922 10.1211C36.9922 8.76758 35.9551 7.85352 34.4961 7.85352ZM34.6543 14.9551V16.7832H41.5977V14.9551H43.2676V21.3008H33.002V14.9551H34.6543ZM34.6543 19.9297H41.5977V18.1016H34.6543V19.9297Z" fill="#222222"/>
</svg>
