<svg width="22" height="20" viewBox="0 0 22 20" fill="none" xmlns="http://www.w3.org/2000/svg">
<path d="M10.999 0.350586C16.799 0.350586 21.5 4.01459 21.5 8.53559C21.5 13.0556 16.799 16.7196 11 16.7196C10.4226 16.7199 9.84572 16.6831 9.273 16.6096L4.865 19.4926C4.364 19.7576 4.187 19.7286 4.393 19.0796L5.285 15.4016C2.405 13.9416 0.5 11.4116 0.5 8.53559C0.5 4.01559 5.2 0.350586 11 0.350586M16.908 8.41059L18.378 6.98659C18.4628 6.89849 18.5101 6.78092 18.51 6.65863C18.5098 6.53634 18.4622 6.41888 18.3772 6.33099C18.2922 6.24311 18.1763 6.19166 18.0541 6.18748C17.9319 6.1833 17.8128 6.22672 17.722 6.30859L15.794 8.17459V6.63259C15.794 6.5074 15.7443 6.38735 15.6558 6.29883C15.5672 6.21031 15.4472 6.16059 15.322 6.16059C15.1968 6.16059 15.0768 6.21031 14.9882 6.29883C14.8997 6.38735 14.85 6.5074 14.85 6.63259V9.18959C14.8323 9.26253 14.8323 9.33864 14.85 9.41159V10.8506C14.85 10.9758 14.8997 11.0958 14.9882 11.1843C15.0768 11.2729 15.1968 11.3226 15.322 11.3226C15.4472 11.3226 15.5672 11.2729 15.6558 11.1843C15.7443 11.0958 15.794 10.9758 15.794 10.8506V9.48759L16.221 9.07459L17.649 11.1076C17.6847 11.1583 17.73 11.2016 17.7823 11.2348C17.8347 11.2681 17.8931 11.2907 17.9542 11.3014C18.0153 11.312 18.0779 11.3106 18.1384 11.2971C18.199 11.2835 18.2562 11.2582 18.307 11.2226C18.3578 11.1869 18.401 11.1416 18.4342 11.0893C18.4675 11.0369 18.4901 10.9785 18.5008 10.9174C18.5115 10.8563 18.51 10.7937 18.4965 10.7332C18.483 10.6726 18.4577 10.6153 18.422 10.5646L16.908 8.41059ZM13.95 10.3346H12.49V6.64759C12.4844 6.52629 12.4323 6.41182 12.3445 6.32796C12.2567 6.2441 12.1399 6.19731 12.0185 6.19731C11.8971 6.19731 11.7803 6.2441 11.6925 6.32796C11.6047 6.41182 11.5526 6.52629 11.547 6.64759V10.8066C11.547 11.0666 11.757 11.2786 12.018 11.2786H13.95C14.0752 11.2786 14.1952 11.2289 14.2838 11.1403C14.3723 11.0518 14.422 10.9318 14.422 10.8066C14.422 10.6814 14.3723 10.5613 14.2838 10.4728C14.1952 10.3843 14.0752 10.3346 13.95 10.3346ZM8.093 9.24359L8.789 7.53559L9.427 9.24259L8.093 9.24359ZM10.616 9.73059L10.618 9.71459C10.6178 9.59568 10.5724 9.4813 10.491 9.39459L9.445 6.59459C9.40115 6.46115 9.31763 6.34428 9.20559 6.25958C9.09355 6.17488 8.95833 6.12639 8.818 6.12059C8.67664 6.11996 8.53844 6.1624 8.42179 6.24225C8.30514 6.3221 8.21557 6.43558 8.165 6.56759L6.503 10.6426C6.45566 10.7585 6.4563 10.8884 6.50478 11.0039C6.55325 11.1193 6.6456 11.2107 6.7615 11.2581C6.8774 11.3054 7.00736 11.3048 7.12279 11.2563C7.23822 11.2078 7.32966 11.1155 7.377 10.9996L7.709 10.1866H9.779L10.077 10.9866C10.0973 11.0464 10.1295 11.1015 10.1715 11.1487C10.2135 11.1958 10.2645 11.2341 10.3216 11.2611C10.3787 11.2882 10.4406 11.3035 10.5037 11.3062C10.5668 11.3089 10.6298 11.299 10.689 11.2769C10.7481 11.2548 10.8023 11.221 10.8482 11.1776C10.894 11.1343 10.9308 11.0821 10.9561 11.0242C10.9815 10.9664 10.995 10.9041 10.9958 10.8409C10.9967 10.7778 10.9848 10.7151 10.961 10.6566L10.616 9.73059ZM7.293 6.65259C7.293 6.52758 7.24341 6.40767 7.15511 6.31918C7.06681 6.2307 6.94701 6.18085 6.822 6.18059H3.577C3.45182 6.18059 3.33176 6.23031 3.24325 6.31883C3.15473 6.40735 3.105 6.5274 3.105 6.65259C3.105 6.77777 3.15473 6.89782 3.24325 6.98634C3.33176 7.07486 3.45182 7.12459 3.577 7.12459H4.737V10.8606C4.737 10.9858 4.78673 11.1058 4.87525 11.1943C4.96376 11.2829 5.08382 11.3326 5.209 11.3326C5.33418 11.3326 5.45424 11.2829 5.54275 11.1943C5.63127 11.1058 5.681 10.9858 5.681 10.8606V7.12459H6.821C6.94618 7.12459 7.06624 7.07486 7.15475 6.98634C7.24327 6.89782 7.293 6.77777 7.293 6.65259Z" fill="#FAFAFA"/>
</svg>
