<svg width="20" height="14" viewBox="0 0 20 14" fill="none" xmlns="http://www.w3.org/2000/svg">
<path d="M19.6002 2.1969C19.4863 1.77431 19.2637 1.38891 18.9545 1.07907C18.6454 0.769235 18.2605 0.545764 17.8382 0.430904C16.2722 0.000903875 10.0072 -0.00609592 10.0072 -0.00609592C10.0072 -0.00609592 3.74317 -0.0130961 2.17617 0.397904C1.75409 0.51805 1.36999 0.744681 1.06073 1.05604C0.751475 1.3674 0.527451 1.75303 0.410166 2.1759C-0.00283429 3.7419 -0.00683447 6.9899 -0.00683447 6.9899C-0.00683447 6.9899 -0.0108345 10.2539 0.399166 11.8039C0.629166 12.6609 1.30417 13.3379 2.16217 13.5689C3.74417 13.9989 9.99217 14.0059 9.99217 14.0059C9.99217 14.0059 16.2572 14.0129 17.8232 13.6029C18.2457 13.4882 18.6309 13.2653 18.9408 12.9561C19.2507 12.6469 19.4746 12.2621 19.5902 11.8399C20.0042 10.2749 20.0072 7.0279 20.0072 7.0279C20.0072 7.0279 20.0272 3.7629 19.6002 2.1969ZM8.00317 9.9989L8.00817 3.9989L13.2152 7.0039L8.00317 9.9989Z" fill="#FAFAFA"/>
</svg>
