<svg width="10" height="14" viewBox="0 0 10 14" fill="none" xmlns="http://www.w3.org/2000/svg">
<path fill-rule="evenodd" clip-rule="evenodd" d="M1.5 1C2.05228 1 2.5 1.33579 2.5 1.75V12.25C2.5 12.6642 2.05228 13 1.5 13C0.947715 13 0.5 12.6642 0.5 12.25V1.75C0.5 1.33579 0.947715 1 1.5 1Z" fill="#434343"/>
<path fill-rule="evenodd" clip-rule="evenodd" d="M8.5 1C9.05228 1 9.5 1.33579 9.5 1.75V12.25C9.5 12.6642 9.05228 13 8.5 13C7.94772 13 7.5 12.6642 7.5 12.25V1.75C7.5 1.33579 7.94772 1 8.5 1Z" fill="#434343"/>
<path fill-rule="evenodd" clip-rule="evenodd" d="M1.5 1C2.05228 1 2.5 1.33579 2.5 1.75V12.25C2.5 12.6642 2.05228 13 1.5 13C0.947715 13 0.5 12.6642 0.5 12.25V1.75C0.5 1.33579 0.947715 1 1.5 1Z" stroke="#434343" stroke-linecap="round"/>
<path fill-rule="evenodd" clip-rule="evenodd" d="M8.5 1C9.05228 1 9.5 1.33579 9.5 1.75V12.25C9.5 12.6642 9.05228 13 8.5 13C7.94772 13 7.5 12.6642 7.5 12.25V1.75C7.5 1.33579 7.94772 1 8.5 1Z" stroke="#434343" stroke-linecap="round"/>
</svg>
