<svg width="18" height="18" viewBox="0 0 18 18" fill="none" xmlns="http://www.w3.org/2000/svg">
<path d="M6.74999 12.1275L4.14749 9.525C4.00725 9.38476 3.81706 9.30598 3.61874 9.30598C3.42042 9.30598 3.23022 9.38476 3.08999 9.525C2.94975 9.66523 2.87097 9.85543 2.87097 10.0537C2.87097 10.1519 2.89031 10.2492 2.92789 10.3399C2.96547 10.4306 3.02055 10.5131 3.08999 10.5825L5.99998 13.5C6.29248 13.7925 7.20748 13.7925 7.49998 13.5L15.2175 5.7825C15.3577 5.64226 15.4365 5.45207 15.4365 5.25375C15.4365 5.05543 15.3577 4.86523 15.2175 4.725C15.0773 4.58476 14.8871 4.50598 14.6887 4.50598C14.4904 4.50598 14.3002 4.58476 14.16 4.725L6.74999 12.1275Z" fill="#007EE5"/>
</svg>
