<svg width="24" height="24" viewBox="0 0 24 24" fill="none" xmlns="http://www.w3.org/2000/svg">
<path fill-rule="evenodd" clip-rule="evenodd" d="M4.30029 5.27842C4.70069 4.90719 5.34985 4.90719 5.75025 5.27842L12.2091 11.2667C12.6359 11.6624 12.6359 12.3376 12.2091 12.7333L5.75025 18.7216C5.34985 19.0928 4.70069 19.0928 4.3003 18.7216C3.8999 18.3504 3.8999 17.7485 4.3003 17.3773L10.1001 12L4.30029 6.62273C3.8999 6.25151 3.8999 5.64964 4.30029 5.27842Z" fill="#222222"/>
<path fill-rule="evenodd" clip-rule="evenodd" d="M12.3003 5.27842C12.7007 4.90719 13.3499 4.90719 13.7502 5.27842L20.2091 11.2667C20.6359 11.6624 20.6359 12.3376 20.2091 12.7333L13.7502 18.7216C13.3499 19.0928 12.7007 19.0928 12.3003 18.7216C11.8999 18.3504 11.8999 17.7485 12.3003 17.3773L18.1001 12L12.3003 6.62273C11.8999 6.25151 11.8999 5.64964 12.3003 5.27842Z" fill="#222222"/>
</svg>
