<svg width="24" height="24" viewBox="0 0 24 24" fill="none" xmlns="http://www.w3.org/2000/svg">
<path fill-rule="evenodd" clip-rule="evenodd" d="M19.9643 18.7216C19.5639 19.0928 18.9147 19.0928 18.5143 18.7216L12.0555 12.7333C11.6287 12.3376 11.6287 11.6624 12.0555 11.2667L18.5143 5.27842C18.9147 4.9072 19.5639 4.90719 19.9643 5.27842C20.3647 5.64964 20.3647 6.25151 19.9643 6.62273L14.1645 12L19.9643 17.3773C20.3647 17.7485 20.3647 18.3504 19.9643 18.7216Z" fill="#222222"/>
<path fill-rule="evenodd" clip-rule="evenodd" d="M11.9643 18.7216C11.5639 19.0928 10.9147 19.0928 10.5143 18.7216L4.05552 12.7333C3.62871 12.3376 3.62871 11.6624 4.05552 11.2667L10.5143 5.27842C10.9147 4.90719 11.5639 4.90719 11.9643 5.27842C12.3647 5.64964 12.3647 6.25151 11.9643 6.62273L6.16449 12L11.9643 17.3773C12.3647 17.7485 12.3647 18.3504 11.9643 18.7216Z" fill="#222222"/>
</svg>
