<svg width="48" height="48" viewBox="0 0 48 48" fill="none" xmlns="http://www.w3.org/2000/svg">
<path fill-rule="evenodd" clip-rule="evenodd" d="M35.7071 12.2929C36.0976 12.6834 36.0976 13.3166 35.7071 13.7071L13.7071 35.7071C13.3166 36.0976 12.6834 36.0976 12.2929 35.7071C11.9024 35.3166 11.9024 34.6834 12.2929 34.2929L34.2929 12.2929C34.6834 11.9024 35.3166 11.9024 35.7071 12.2929Z" fill="white"/>
<path fill-rule="evenodd" clip-rule="evenodd" d="M12.2929 12.2929C12.6834 11.9024 13.3166 11.9024 13.7071 12.2929L35.7071 34.2929C36.0976 34.6834 36.0976 35.3166 35.7071 35.7071C35.3166 36.0976 34.6834 36.0976 34.2929 35.7071L12.2929 13.7071C11.9024 13.3166 11.9024 12.6834 12.2929 12.2929Z" fill="white"/>
</svg>
