<svg width="24" height="24" viewBox="0 0 24 24" fill="none" xmlns="http://www.w3.org/2000/svg">
<path d="M21 8.11079C21 11.8007 21 16.8829 15.1359 19.9136C14.6048 20.1881 14 19.7739 14 19.1629C14 18.8717 14.1707 18.608 14.404 18.4427C15.5851 17.6057 17.9804 14.9953 18.1859 12.0377C17.8112 12.1571 17.4129 12.2213 17 12.2213C14.7909 12.2213 13 10.3809 13 8.11067C13 5.84041 14.7909 4 17 4C19.2091 4 21 5.84053 21 8.11079C21 8.11075 21 8.11083 21 8.11079Z" fill="#BEBEBE"/>
<path d="M11 8.11079C11 11.8007 11 16.8829 5.1359 19.9136C4.60477 20.1881 4 19.7739 4 19.1629C4 18.8717 4.17071 18.608 4.40398 18.4427C5.58507 17.6057 7.9804 14.9953 8.18587 12.0377C7.81117 12.1571 7.41289 12.2213 7 12.2213C4.79086 12.2213 3 10.3809 3 8.11067C3 5.84041 4.79086 4 7 4C9.20914 4 11 5.84053 11 8.11079C11 8.11075 11 8.11083 11 8.11079Z" fill="#BEBEBE"/>
</svg>
