<svg width="24" height="24" viewBox="0 0 24 24" fill="none" xmlns="http://www.w3.org/2000/svg">
<path d="M3 15.8892C3 12.1993 3 7.11711 8.8641 4.08644C9.39523 3.81195 10 4.2261 10 4.83706C10 5.12826 9.82929 5.39197 9.59602 5.55729C8.41493 6.39434 6.01961 9.00475 5.81413 11.9623C6.18883 11.8429 6.58711 11.7787 7 11.7787C9.20914 11.7787 11 13.6191 11 15.8893C11 18.1596 9.20914 20 7 20C4.79086 20 3 18.1595 3 15.8892C3 15.8893 3 15.8892 3 15.8892Z" fill="#BEBEBE"/>
<path d="M13 15.8892C13 12.1993 13 7.11711 18.8641 4.08644C19.3952 3.81195 20 4.2261 20 4.83706C20 5.12826 19.8293 5.39197 19.596 5.55729C18.4149 6.39434 16.0196 9.00475 15.8141 11.9623C16.1888 11.8429 16.5871 11.7787 17 11.7787C19.2091 11.7787 21 13.6191 21 15.8893C21 18.1596 19.2091 20 17 20C14.7909 20 13 18.1595 13 15.8892C13 15.8893 13 15.8892 13 15.8892Z" fill="#BEBEBE"/>
</svg>
