<svg width="24" height="24" viewBox="0 0 24 24" fill="none" xmlns="http://www.w3.org/2000/svg">
<path fill-rule="evenodd" clip-rule="evenodd" d="M12 12C15.3137 12 18 9.31371 18 6C18 2.68629 15.3137 0 12 0C8.68629 0 6 2.68629 6 6C6 9.31371 8.68629 12 12 12ZM16 6C16 8.20914 14.2091 10 12 10C9.79086 10 8 8.20914 8 6C8 3.79086 9.79086 2 12 2C14.2091 2 16 3.79086 16 6Z" fill="white"/>
<path fill-rule="evenodd" clip-rule="evenodd" d="M9.18182 13C4.11084 13 0 17.1108 0 22.1818C0 23.186 0.814028 24 1.81818 24H22.1818C23.186 24 24 23.186 24 22.1818C24 17.1108 19.8892 13 14.8182 13H9.18182ZM14.8182 15C18.7238 15 21.9013 18.1176 21.9977 22H2.00226C2.09873 18.1176 5.2762 15 9.18182 15H14.8182Z" fill="white"/>
</svg>
