<svg width="48" height="48" viewBox="0 0 48 48" fill="none" xmlns="http://www.w3.org/2000/svg">
<path fill-rule="evenodd" clip-rule="evenodd" d="M20.5 18C21.0523 18 21.5 18.3358 21.5 18.75V29.25C21.5 29.6642 21.0523 30 20.5 30C19.9477 30 19.5 29.6642 19.5 29.25V18.75C19.5 18.3358 19.9477 18 20.5 18Z" fill="#434343"/>
<path fill-rule="evenodd" clip-rule="evenodd" d="M27.5 18C28.0523 18 28.5 18.3358 28.5 18.75V29.25C28.5 29.6642 28.0523 30 27.5 30C26.9477 30 26.5 29.6642 26.5 29.25V18.75C26.5 18.3358 26.9477 18 27.5 18Z" fill="#434343"/>
<path fill-rule="evenodd" clip-rule="evenodd" d="M20.5 18C21.0523 18 21.5 18.3358 21.5 18.75V29.25C21.5 29.6642 21.0523 30 20.5 30C19.9477 30 19.5 29.6642 19.5 29.25V18.75C19.5 18.3358 19.9477 18 20.5 18Z" stroke="#434343" stroke-width="0.5" stroke-linecap="round"/>
<path fill-rule="evenodd" clip-rule="evenodd" d="M27.5 18C28.0523 18 28.5 18.3358 28.5 18.75V29.25C28.5 29.6642 28.0523 30 27.5 30C26.9477 30 26.5 29.6642 26.5 29.25V18.75C26.5 18.3358 26.9477 18 27.5 18Z" stroke="#434343" stroke-width="0.5" stroke-linecap="round"/>
</svg>
