<svg width="28" height="28" viewBox="0 0 28 28" fill="none" xmlns="http://www.w3.org/2000/svg">
<path fill-rule="evenodd" clip-rule="evenodd" d="M21.1769 3.74294H6.81791C6.00186 3.74294 5.21923 4.06711 4.6422 4.64415C4.06516 5.22118 3.74099 6.00381 3.74099 6.81986V17.1317L5.71432 15.6958C6.33527 15.2446 7.08449 15.0043 7.85203 15.0102C8.61956 15.0161 9.365 15.2679 9.97893 15.7286L11.8825 17.1563L16.74 12.9922C17.4078 12.4203 18.2623 12.1133 19.1413 12.1296C20.0204 12.1458 20.863 12.4842 21.5092 13.0804L24.2538 15.6137V6.81986C24.2538 6.00381 23.9296 5.22118 23.3526 4.64415C22.7756 4.06711 21.9929 3.74294 21.1769 3.74294ZM27.3307 19.1235V6.81986C27.3307 5.18776 26.6824 3.62251 25.5283 2.46844C24.3742 1.31437 22.809 0.666016 21.1769 0.666016H6.81791C5.18581 0.666016 3.62055 1.31437 2.46648 2.46844C1.31241 3.62251 0.664063 5.18776 0.664062 6.81986V21.1788C0.664063 22.8109 1.31241 24.3762 2.46648 25.5303C3.62055 26.6843 5.18581 27.3327 6.81791 27.3327H21.1769C22.809 27.3327 24.3742 26.6843 25.5283 25.5303C26.6824 24.3762 27.3307 22.8109 27.3307 21.1788V19.1235ZM24.2538 19.8004L19.423 15.3409C19.3307 15.2558 19.2104 15.2076 19.0849 15.2053C18.9593 15.2031 18.8374 15.2469 18.742 15.3286L12.9471 20.2968L12.0097 21.1009L11.023 20.3604L8.13073 18.1922C8.04315 18.1269 7.93702 18.0913 7.82781 18.0906C7.7186 18.0899 7.612 18.124 7.52355 18.1881L3.74099 20.9347V21.1788C3.74099 21.9949 4.06516 22.7775 4.6422 23.3545C5.21923 23.9316 6.00186 24.2558 6.81791 24.2558H21.1769C21.9929 24.2558 22.7756 23.9316 23.3526 23.3545C23.9296 22.7775 24.2538 21.9949 24.2538 21.1788V19.8004ZM12.9718 9.89678C12.9718 10.7128 12.6476 11.4955 12.0705 12.0725C11.4935 12.6495 10.7109 12.9737 9.89483 12.9737C9.07878 12.9737 8.29615 12.6495 7.71912 12.0725C7.14208 11.4955 6.81791 10.7128 6.81791 9.89678C6.81791 9.08073 7.14208 8.29811 7.71912 7.72107C8.29615 7.14404 9.07878 6.81986 9.89483 6.81986C10.7109 6.81986 11.4935 7.14404 12.0705 7.72107C12.6476 8.29811 12.9718 9.08073 12.9718 9.89678Z" fill="#8C8C8C"/>
</svg>
