<svg width="28" height="28" viewBox="0 0 28 28" fill="none" xmlns="http://www.w3.org/2000/svg">
<path fill-rule="evenodd" clip-rule="evenodd" d="M14 1.86667C7.29894 1.86667 1.86667 7.29894 1.86667 14C1.86667 16.3235 2.51979 18.4945 3.65247 20.3394C6.23116 17.588 9.91281 15.8667 14 15.8667C18.0872 15.8667 21.7688 17.588 24.3475 20.3394C25.4802 18.4945 26.1333 16.3235 26.1333 14C26.1333 7.29894 20.7011 1.86667 14 1.86667ZM23.2202 21.8874C20.9767 19.3416 17.6778 17.7333 14 17.7333C10.3222 17.7333 7.02329 19.3416 4.77978 21.8874C7.00512 24.4863 10.3102 26.1333 14 26.1333C17.6898 26.1333 20.9949 24.4863 23.2202 21.8874ZM0 14C0 6.26801 6.26801 0 14 0C21.732 0 28 6.26801 28 14C28 21.732 21.732 28 14 28C6.26801 28 0 21.732 0 14ZM14 12.1333C15.5464 12.1333 16.8 10.8797 16.8 9.33333C16.8 7.78694 15.5464 6.53333 14 6.53333C12.4536 6.53333 11.2 7.78694 11.2 9.33333C11.2 10.8797 12.4536 12.1333 14 12.1333ZM14 14C16.5773 14 18.6667 11.9107 18.6667 9.33333C18.6667 6.756 16.5773 4.66667 14 4.66667C11.4227 4.66667 9.33333 6.756 9.33333 9.33333C9.33333 11.9107 11.4227 14 14 14Z" fill="#434343"/>
</svg>
