<svg width="21" height="20" viewBox="0 0 21 20" fill="none" xmlns="http://www.w3.org/2000/svg">
<path d="M10.499 0.291748C16.299 0.291748 21 3.95575 21 8.47675C21 12.9967 16.299 16.6607 10.5 16.6607C9.92257 16.661 9.34572 16.6243 8.773 16.5507L4.365 19.4337C3.864 19.6987 3.687 19.6697 3.893 19.0207L4.785 15.3427C1.905 13.8827 0 11.3527 0 8.47675C0 3.95675 4.7 0.291748 10.5 0.291748M16.408 8.35175L17.878 6.92775C17.9628 6.83966 18.0101 6.72208 18.01 6.59979C18.0098 6.4775 17.9622 6.36004 17.8772 6.27216C17.7922 6.18427 17.6763 6.13282 17.5541 6.12864C17.4319 6.12446 17.3128 6.16788 17.222 6.24975L15.294 8.11575V6.57375C15.294 6.44857 15.2443 6.32851 15.1558 6.23999C15.0672 6.15148 14.9472 6.10175 14.822 6.10175C14.6968 6.10175 14.5768 6.15148 14.4882 6.23999C14.3997 6.32851 14.35 6.44857 14.35 6.57375V9.13075C14.3323 9.2037 14.3323 9.2798 14.35 9.35275V10.7917C14.35 10.9169 14.3997 11.037 14.4882 11.1255C14.5768 11.214 14.6968 11.2637 14.822 11.2637C14.9472 11.2637 15.0672 11.214 15.1558 11.1255C15.2443 11.037 15.294 10.9169 15.294 10.7917V9.42875L15.721 9.01575L17.149 11.0487C17.1847 11.0995 17.23 11.1427 17.2823 11.176C17.3347 11.2092 17.3931 11.2318 17.4542 11.2425C17.5153 11.2532 17.5779 11.2517 17.6384 11.2382C17.699 11.2247 17.7562 11.1994 17.807 11.1637C17.8578 11.1281 17.901 11.0828 17.9342 11.0304C17.9675 10.9781 17.9901 10.9197 18.0008 10.8586C18.0115 10.7975 18.01 10.7349 17.9965 10.6743C17.983 10.6138 17.9577 10.5565 17.922 10.5057L16.408 8.35175ZM13.45 10.2757H11.99V6.58875C11.9844 6.46745 11.9323 6.35298 11.8445 6.26912C11.7567 6.18526 11.6399 6.13847 11.5185 6.13847C11.3971 6.13847 11.2803 6.18526 11.1925 6.26912C11.1047 6.35298 11.0526 6.46745 11.047 6.58875V10.7477C11.047 11.0077 11.257 11.2197 11.518 11.2197H13.45C13.5752 11.2197 13.6952 11.17 13.7838 11.0815C13.8723 10.993 13.922 10.8729 13.922 10.7477C13.922 10.6226 13.8723 10.5025 13.7838 10.414C13.6952 10.3255 13.5752 10.2757 13.45 10.2757ZM7.593 9.18475L8.289 7.47675L8.927 9.18375L7.593 9.18475ZM10.116 9.67175L10.118 9.65575C10.1178 9.53684 10.0724 9.42246 9.991 9.33575L8.945 6.53575C8.90115 6.40232 8.81763 6.28544 8.70559 6.20074C8.59355 6.11604 8.45833 6.06755 8.318 6.06175C8.17664 6.06113 8.03844 6.10356 7.92179 6.18341C7.80514 6.26326 7.71557 6.37674 7.665 6.50875L6.003 10.5837C5.95566 10.6996 5.9563 10.8296 6.00478 10.945C6.05325 11.0605 6.1456 11.1519 6.2615 11.1992C6.3774 11.2466 6.50736 11.246 6.62279 11.1975C6.73822 11.149 6.82966 11.0566 6.877 10.9407L7.209 10.1277H9.279L9.577 10.9277C9.59733 10.9875 9.62945 11.0427 9.67147 11.0898C9.71348 11.137 9.76453 11.1752 9.8216 11.2023C9.87866 11.2294 9.94058 11.2447 10.0037 11.2474C10.0668 11.2501 10.1298 11.2401 10.189 11.218C10.2481 11.1959 10.3023 11.1622 10.3482 11.1188C10.394 11.0754 10.4308 11.0233 10.4561 10.9654C10.4815 10.9076 10.495 10.8452 10.4958 10.7821C10.4967 10.7189 10.4848 10.6562 10.461 10.5977L10.116 9.67175ZM6.793 6.59375C6.793 6.46874 6.74341 6.34883 6.65511 6.26035C6.56681 6.17186 6.44701 6.12201 6.322 6.12175H3.077C2.95182 6.12175 2.83176 6.17148 2.74325 6.25999C2.65473 6.34851 2.605 6.46857 2.605 6.59375C2.605 6.71893 2.65473 6.83899 2.74325 6.9275C2.83176 7.01602 2.95182 7.06575 3.077 7.06575H4.237V10.8017C4.237 10.9269 4.28673 11.047 4.37525 11.1355C4.46376 11.224 4.58382 11.2737 4.709 11.2737C4.83418 11.2737 4.95424 11.224 5.04275 11.1355C5.13127 11.047 5.181 10.9269 5.181 10.8017V7.06575H6.321C6.44618 7.06575 6.56624 7.01602 6.65475 6.9275C6.74327 6.83899 6.793 6.71893 6.793 6.59375Z" fill="#3A1D1D"/>
</svg>
