<svg width="34" height="34" viewBox="0 0 34 34" fill="none" xmlns="http://www.w3.org/2000/svg">
<g clip-path="url(#clip0_493_1777)">
<path d="M22.6275 18.3847C22.9894 18.0228 23.2132 17.5228 23.2132 16.9705C23.2132 16.4183 22.9894 15.9183 22.6274 15.5563M16.9706 21.2132C19.3137 23.5563 23.1127 23.5563 25.4559 21.2132C27.799 18.87 27.799 15.071 25.4559 12.7279C23.1127 10.3848 19.3137 10.3848 16.9706 12.7279C16.7771 12.9214 16.5995 13.1249 16.438 13.3366C16.1723 13.6849 16.0394 13.859 15.9284 13.9422C15.8128 14.0289 15.7398 14.065 15.6008 14.1043C15.4673 14.1421 15.2986 14.1421 14.9612 14.1421L7.73383 14.1421C7.48924 14.1421 7.36694 14.1421 7.25185 14.1697C7.14982 14.1942 7.05227 14.2346 6.9628 14.2895C6.86188 14.3513 6.77541 14.4378 6.60246 14.6107L5.37403 15.8392C4.97801 16.2352 4.78 16.4332 4.70581 16.6615C4.64056 16.8624 4.64056 17.0787 4.70582 17.2796C4.78 17.5079 4.97801 17.7059 5.37403 18.1019L7.07109 19.799L8.4853 18.3848L9.89951 19.799L11.3137 18.3848L12.7279 19.799L14.9612 19.799C15.2986 19.799 15.4673 19.799 15.6008 19.8367C15.7398 19.8761 15.8128 19.9122 15.9284 19.9989C16.0394 20.0821 16.1723 20.2562 16.438 20.6045C16.5995 20.8162 16.7771 21.0197 16.9706 21.2132Z" stroke="#9F9F9F" stroke-width="2" stroke-linecap="round" stroke-linejoin="round"/>
</g>
<defs>
<clipPath id="clip0_493_1777">
<rect width="24" height="24" fill="white" transform="translate(16.9706) rotate(45)"/>
</clipPath>
</defs>
</svg>
