<svg width="22" height="14" viewBox="0 0 22 14" fill="none" xmlns="http://www.w3.org/2000/svg">
<path d="M16.934 8.41417C17.2549 8.05225 17.4533 7.55226 17.4533 7C17.4533 6.44772 17.2548 5.94772 16.9339 5.58579M11.9182 11.2426C13.9958 13.5858 17.3642 13.5858 19.4418 11.2426C21.5194 8.89949 21.5194 5.10051 19.4418 2.75736C17.3642 0.414213 13.9958 0.414214 11.9182 2.75736C11.7466 2.95088 11.5892 3.15433 11.4459 3.36607C11.2103 3.71433 11.0925 3.88846 10.9941 3.97168C10.8916 4.05837 10.8269 4.09446 10.7036 4.1338C10.5852 4.17157 10.4357 4.17157 10.1365 4.17157L3.72824 4.17157C3.51137 4.17157 3.40293 4.17157 3.30089 4.1992C3.21042 4.2237 3.12393 4.2641 3.04459 4.31893C2.95511 4.38077 2.87844 4.46725 2.72509 4.6402L1.63588 5.86863C1.28475 6.26465 1.10918 6.46265 1.0434 6.69098C0.985534 6.89183 0.985535 7.10817 1.0434 7.30902C1.10918 7.53735 1.28475 7.73535 1.63588 8.13137L3.14061 9.82843L4.39455 8.41421L5.64848 9.82843L6.90242 8.41421L8.15636 9.82843H10.1365C10.4357 9.82843 10.5852 9.82843 10.7036 9.86619C10.8269 9.90554 10.8916 9.94163 10.9941 10.0283C11.0925 10.1115 11.2103 10.2857 11.4459 10.6339C11.5892 10.8457 11.7466 11.0491 11.9182 11.2426Z" stroke="#9F9F9F" stroke-width="2" stroke-linecap="round" stroke-linejoin="round"/>
</svg>
