<svg width="20" height="20" viewBox="0 0 20 20" fill="none" xmlns="http://www.w3.org/2000/svg">
<path d="M19.5313 4.93682L15.0624 0.468764C14.9139 0.32015 14.7375 0.202261 14.5433 0.121829C14.3492 0.0413978 14.1411 0 13.931 0C13.7208 0 13.5128 0.0413978 13.3186 0.121829C13.1245 0.202261 12.9481 0.32015 12.7995 0.468764L0.46899 12.7999C0.319775 12.948 0.201474 13.1242 0.120963 13.3183C0.0404513 13.5125 -0.000663414 13.7207 8.09464e-06 13.9309V18.4C8.09464e-06 18.8243 0.168573 19.2313 0.468619 19.5314C0.768666 19.8314 1.17562 20 1.59995 20H19.2C19.4122 20 19.6157 19.9157 19.7657 19.7657C19.9157 19.6157 20 19.4122 20 19.2C20 18.9878 19.9157 18.7843 19.7657 18.6343C19.6157 18.4843 19.4122 18.4 19.2 18.4H8.33169L19.5313 7.19985C19.6799 7.05126 19.7978 6.87486 19.8782 6.68072C19.9586 6.48657 20 6.27848 20 6.06833C20 5.85818 19.9586 5.65009 19.8782 5.45595C19.7978 5.2618 19.6799 5.0854 19.5313 4.93682ZM10.3996 5.13082L12.0685 6.79984L3.59987 15.2689L1.93093 13.5999L10.3996 5.13082ZM1.59995 18.4V15.5309L4.46884 18.4H1.59995ZM6.39976 18.069L4.73183 16.4L13.1995 7.93085L14.8684 9.59987L6.39976 18.069ZM15.9994 8.46886L11.5316 3.99981L13.9315 1.59978L18.3993 6.06883L15.9994 8.46886Z" fill="white"/>
</svg>
