<svg width="70" height="32" viewBox="0 0 70 32" fill="none" xmlns="http://www.w3.org/2000/svg">
<path d="M0 10C0 4.47715 4.47715 0 10 0H70V22C70 27.5228 65.5229 32 60 32H0V10Z" fill="#C6E6C7"/>
<path d="M25.0117 10.2578C25.0117 10.9492 25.1641 11.6113 25.4688 12.2441C25.7793 12.877 26.2188 13.4365 26.7871 13.9229C27.3613 14.4033 28.0352 14.7695 28.8086 15.0215L27.9121 16.3398C27.0625 16.041 26.3184 15.5986 25.6797 15.0127C25.0469 14.4209 24.5576 13.7324 24.2119 12.9473C23.8662 13.8438 23.3623 14.623 22.7002 15.2852C22.0439 15.9414 21.2617 16.4395 20.3535 16.7793L19.457 15.4434C20.2656 15.1562 20.96 14.7461 21.54 14.2129C22.126 13.6738 22.5742 13.0527 22.8848 12.3496C23.1953 11.6465 23.3535 10.9023 23.3594 10.1172V8.57031H25.0117V10.2578ZM31.9551 11.6992H34.2402V13.1055H31.9551V17.2539H30.2852V7.74414H31.9551V11.6992ZM26.875 17.623C27.9473 17.623 28.876 17.7402 29.6611 17.9746C30.4463 18.2031 31.0469 18.5371 31.4629 18.9766C31.8848 19.4102 32.0957 19.9316 32.0957 20.541C32.0957 21.1562 31.8848 21.6836 31.4629 22.123C31.0469 22.5625 30.4463 22.8965 29.6611 23.125C28.876 23.3535 27.9473 23.4648 26.875 23.459C25.791 23.4648 24.8506 23.3535 24.0537 23.125C23.2568 22.8965 22.6445 22.5625 22.2168 22.123C21.7949 21.6836 21.584 21.1562 21.584 20.541C21.584 19.9316 21.7949 19.4102 22.2168 18.9766C22.6445 18.5371 23.2568 18.2031 24.0537 17.9746C24.8506 17.7402 25.791 17.623 26.875 17.623ZM26.875 18.9414C26.1191 18.9414 25.4688 19.0059 24.9238 19.1348C24.3789 19.2578 23.9629 19.4395 23.6758 19.6797C23.3887 19.9199 23.248 20.207 23.2539 20.541C23.248 21.0566 23.5615 21.4521 24.1943 21.7275C24.8271 22.0029 25.7207 22.1465 26.875 22.1582C28.0176 22.1465 28.8994 22.0029 29.5205 21.7275C30.1475 21.4521 30.4609 21.0566 30.4609 20.541C30.4609 20.0371 30.1445 19.6445 29.5117 19.3633C28.8848 19.082 28.0059 18.9414 26.875 18.9414ZM40.9199 11.752C40.9141 12.7012 41.0869 13.6357 41.4385 14.5557C41.7959 15.4697 42.291 16.2842 42.9238 16.999C43.5625 17.7139 44.2832 18.25 45.0859 18.6074L44.084 19.9258C43.1875 19.498 42.3936 18.8682 41.7021 18.0361C41.0107 17.1982 40.4775 16.2373 40.1025 15.1533C39.7334 16.3193 39.1943 17.3506 38.4854 18.2471C37.7822 19.1436 36.9648 19.8203 36.0332 20.2773L35.0137 18.8711C35.8281 18.5078 36.5547 17.957 37.1934 17.2188C37.8379 16.4805 38.3389 15.6338 38.6963 14.6787C39.0537 13.7178 39.2324 12.7422 39.2324 11.752V9.0625H40.9199V11.752ZM48.1797 23.5293H46.5098V7.74414H48.1797V23.5293Z" fill="#222222"/>
</svg>
