<svg width="19" height="14" viewBox="0 0 19 14" fill="none" xmlns="http://www.w3.org/2000/svg">
<path fill-rule="evenodd" clip-rule="evenodd" d="M10.3003 0.278417C10.7007 -0.0928054 11.3499 -0.0928059 11.7502 0.278417L18.2091 6.26668C18.6359 6.6624 18.6359 7.33759 18.2091 7.73331L11.7502 13.7216C11.3499 14.0928 10.7007 14.0928 10.3003 13.7216C9.8999 13.3504 9.8999 12.7485 10.3003 12.3773L16.1001 7L10.3003 1.62273C9.8999 1.25151 9.8999 0.64964 10.3003 0.278417Z" fill="#222222"/>
<path fill-rule="evenodd" clip-rule="evenodd" d="M0 7C0 6.44772 0.447715 6 1 6H16C16.5523 6 17 6.44772 17 7C17 7.55228 16.5523 8 16 8H1C0.447715 8 0 7.55228 0 7Z" fill="#222222"/>
</svg>
