<svg width="24" height="24" viewBox="0 0 24 24" fill="none" xmlns="http://www.w3.org/2000/svg">
<path fill-rule="evenodd" clip-rule="evenodd" d="M12 10C13.6569 10 15 8.65685 15 7C15 5.34315 13.6569 4 12 4C10.3431 4 9 5.34315 9 7C9 8.65685 10.3431 10 12 10ZM12 12C14.7614 12 17 9.76142 17 7C17 4.23858 14.7614 2 12 2C9.23858 2 7 4.23858 7 7C7 9.76142 9.23858 12 12 12Z" fill="#9F9F9F"/>
<path fill-rule="evenodd" clip-rule="evenodd" d="M6.37218 17.2604C5.34422 18.5097 5 20.0229 5 21C5 21.5523 4.55228 22 4 22C3.44772 22 3 21.5523 3 21C3 19.6437 3.45578 17.657 4.82782 15.9896C6.23353 14.2813 8.52676 13 12 13C15.4732 13 17.7665 14.2813 19.1722 15.9896C20.5442 17.657 21 19.6437 21 21C21 21.5523 20.5523 22 20 22C19.4477 22 19 21.5523 19 21C19 20.0229 18.6558 18.5097 17.6278 17.2604C16.6335 16.0521 14.9268 15 12 15C9.07324 15 7.36647 16.0521 6.37218 17.2604Z" fill="#9F9F9F"/>
</svg>
