<svg width="24" height="24" viewBox="0 0 24 24" fill="none" xmlns="http://www.w3.org/2000/svg">
<path fill-rule="evenodd" clip-rule="evenodd" d="M17.3038 6.69621C17.6943 7.08674 17.6943 7.7199 17.3038 8.11043L13.4147 11.9995L17.3043 15.8891C17.6948 16.2796 17.6948 16.9128 17.3043 17.3033C16.9138 17.6938 16.2806 17.6938 15.8901 17.3033L12.0005 13.4137L8.1114 17.3028C7.72088 17.6933 7.08771 17.6933 6.69719 17.3028C6.30667 16.9123 6.30667 16.2791 6.69719 15.8886L10.5863 11.9995L6.69768 8.11091C6.30715 7.72039 6.30715 7.08722 6.69768 6.6967C7.0882 6.30617 7.72136 6.30617 8.11189 6.6967L12.0005 10.5853L15.8896 6.69621C16.2801 6.30569 16.9133 6.30569 17.3038 6.69621Z" fill="#BEBEBE"/>
</svg>
