<svg width="70" height="32" viewBox="0 0 70 32" fill="none" xmlns="http://www.w3.org/2000/svg">
<path d="M0 10C0 4.47715 4.47715 0 10 0H70V22C70 27.5228 65.5229 32 60 32H0V10Z" fill="#C6E6C7"/>
<path d="M25.0117 10.2578C25.0117 12.332 26.4531 14.248 28.8086 15.0215L27.9121 16.3398C26.1895 15.7334 24.8975 14.5029 24.2207 12.9473C23.5264 14.7139 22.1904 16.0938 20.3535 16.7793L19.457 15.4434C21.918 14.5645 23.3418 12.4727 23.3594 10.1172V8.57031H25.0117V10.2578ZM31.9551 7.74414V11.6992H34.2402V13.1055H31.9551V17.2539H30.2852V7.74414H31.9551ZM26.875 17.623C30.1094 17.623 32.0957 18.6953 32.0957 20.541C32.0957 22.4043 30.1094 23.4766 26.875 23.459C23.6055 23.4766 21.584 22.4043 21.584 20.541C21.584 18.6953 23.6055 17.623 26.875 17.623ZM26.875 18.9414C24.5898 18.9414 23.2363 19.5391 23.2539 20.541C23.2363 21.5781 24.5898 22.1406 26.875 22.1582C29.1426 22.1406 30.4609 21.5781 30.4609 20.541C30.4609 19.5391 29.1426 18.9414 26.875 18.9414ZM40.9199 11.752C40.9023 14.6348 42.6426 17.5176 45.0859 18.6074L44.084 19.9258C42.2734 19.0645 40.8408 17.2979 40.1113 15.1445C39.373 17.4473 37.9229 19.3545 36.0332 20.2773L35.0137 18.8711C37.4922 17.7637 39.2324 14.7578 39.2324 11.752V9.0625H40.9199V11.752ZM48.1797 7.74414V23.5293H46.5098V7.74414H48.1797Z" fill="#222222"/>
</svg>
