<svg width="70" height="32" viewBox="0 0 70 32" fill="none" xmlns="http://www.w3.org/2000/svg">
<path d="M0 10C0 4.47715 4.47715 0 10 0H70V22C70 27.5228 65.5229 32 60 32H0V10Z" fill="#BCE1FF"/>
<path d="M26.4941 20.1367V21.5254H12.0801V20.1367H18.4258V16.498H13.7324V9.00977H24.7715V16.498H20.0781V20.1367H26.4941ZM15.3496 10.3457V15.1797H23.1367V10.3457H15.3496ZM33.4727 10.2578C33.4727 12.209 35.002 14.0371 37.4277 14.7402L36.584 16.041C34.7471 15.4873 33.3584 14.2832 32.6465 12.7363C31.9346 14.3887 30.5283 15.6982 28.6387 16.3223L27.7949 15.0039C30.2383 14.248 31.7676 12.332 31.7852 10.2578V10.082H28.252V8.72852H36.9355V10.082H33.4727V10.2578ZM40.6973 7.74414V16.2695H39.0273V7.74414H40.6973ZM32.0312 17.0078V18.7656H39.0449V17.0078H40.6973V23.3008H30.3965V17.0078H32.0312ZM32.0312 21.9473H39.0449V20.084H32.0312V21.9473ZM57.5547 15.0391V16.3926H51.1914V17.9043C54.083 18.0625 55.7969 19.0381 55.7969 20.6816C55.7969 22.4746 53.7578 23.4766 50.3652 23.459C46.9375 23.4766 44.8984 22.4746 44.8984 20.6816C44.8984 19.0381 46.6123 18.0625 49.5391 17.9043V16.3926H43.1934V15.0391H57.5547ZM50.3652 19.1699C47.957 19.1699 46.5859 19.7148 46.5859 20.6816C46.5859 21.6309 47.957 22.1934 50.3652 22.1758C52.7383 22.1934 54.127 21.6309 54.127 20.6816C54.127 19.7148 52.7383 19.1699 50.3652 19.1699ZM56.2715 8.46484V9.80078H51.4902C51.7275 11.3213 53.9424 12.6133 56.8164 12.8945L56.2188 14.2129C53.4941 13.8965 51.2354 12.7451 50.3828 11.0664C49.5039 12.7451 47.2539 13.8965 44.5293 14.2129L43.9492 12.8945C46.7793 12.6133 49.0029 11.3213 49.2402 9.80078H44.5117V8.46484H56.2715Z" fill="#222222"/>
</svg>
