<svg width="24" height="24" viewBox="0 0 24 24" fill="none" xmlns="http://www.w3.org/2000/svg">
<path fill-rule="evenodd" clip-rule="evenodd" d="M12 11C13.1046 11 14 10.1046 14 9C14 7.89543 13.1046 7 12 7C10.8954 7 10 7.89543 10 9C10 10.1046 10.8954 11 12 11ZM12 13C14.2091 13 16 11.2091 16 9C16 6.79086 14.2091 5 12 5C9.79086 5 8 6.79086 8 9C8 11.2091 9.79086 13 12 13Z" fill="#222222"/>
<path fill-rule="evenodd" clip-rule="evenodd" d="M17.5911 20.2922C15.9951 21.3704 14.0711 22 12 22C9.79593 22 7.7584 21.2869 6.10553 20.0789C5.5073 19.6417 4.95946 19.1397 4.47235 18.5831C4.40835 18.51 4.3454 18.4359 4.28351 18.3609C2.85695 16.6323 2 14.4162 2 12C2 6.47715 6.47715 2 12 2C17.5228 2 22 6.47715 22 12C22 14.5211 21.0671 16.8242 19.5277 18.5831C19.0405 19.1396 18.4927 19.6417 17.8945 20.0789C17.7947 20.1518 17.6936 20.2229 17.5911 20.2922ZM12 20C13.9223 20 15.6862 19.322 17.0657 18.1921C16.9936 18.0909 16.9165 17.9911 16.8343 17.8932C15.9926 16.8911 14.5342 16 12 16C9.46576 16 8.00742 16.8911 7.1657 17.8932C7.08348 17.9911 7.00642 18.0909 6.93426 18.1921C8.31377 19.322 10.0777 20 12 20ZM18.3657 16.6068C18.3975 16.6446 18.4287 16.6826 18.4593 16.7208C19.4281 15.3975 20 13.7656 20 12C20 7.58172 16.4183 4 12 4C7.58172 4 4 7.58172 4 12C4 13.7656 4.57195 15.3975 5.54066 16.7208C5.57133 16.6826 5.60254 16.6446 5.6343 16.6068C6.89258 15.1089 8.93424 14 12 14C15.0658 14 17.1074 15.1089 18.3657 16.6068Z" fill="#222222"/>
</svg>
