<svg width="44" height="53" viewBox="0 0 44 53" fill="none" xmlns="http://www.w3.org/2000/svg">
<g filter="url(#filter0_d_430_1640)">
<path d="M1 0.999999C1 0.447714 1.44772 0 2 0H40C40.5523 0 41 0.447715 41 1V47.8376C41 48.69 40.0018 49.1516 39.3524 48.5995L21.6476 33.5505C21.2742 33.2331 20.7258 33.2331 20.3524 33.5505L2.64765 48.5995C1.99817 49.1516 1 48.69 1 47.8376V0.999999Z" fill="#90D0FF"/>
<path d="M1.5 0.999999C1.5 0.723857 1.72386 0.5 2 0.5H40C40.2761 0.5 40.5 0.723858 40.5 1V47.8376C40.5 48.2638 40.0009 48.4946 39.6762 48.2185L21.9715 33.1695C21.4113 32.6934 20.5887 32.6934 20.0285 33.1695L2.32383 48.2185C1.99908 48.4946 1.5 48.2638 1.5 47.8376V0.999999Z" stroke="#007EE5"/>
</g>
<path d="M14.1016 13.1367C14.1016 14.4668 14.9629 15.7266 16.5977 16.2422L15.8945 17.2617C14.752 16.875 13.9316 16.1016 13.4688 15.1172C13.0117 16.2422 12.1562 17.127 10.9375 17.5547L10.2344 16.5352C11.9395 15.9434 12.7949 14.5312 12.8008 13.0195V12.0117H14.1016V13.1367ZM11.6758 20.0156C11.6758 18.7617 13.0527 18.0176 15.2617 18.0234C17.4531 18.0176 18.8066 18.7617 18.8125 20.0156C18.8066 21.2988 17.4531 22.0312 15.2617 22.0312C13.0527 22.0312 11.6758 21.2988 11.6758 20.0156ZM12.9766 20.0156C12.9766 20.6719 13.8086 21 15.2617 21C16.709 21 17.5234 20.6719 17.5234 20.0156C17.5234 19.3945 16.709 19.043 15.2617 19.043C13.8086 19.043 12.9766 19.3945 12.9766 20.0156ZM17.4062 17.7891V11.4492H18.707V14.0273H20.1836V15.1055H18.707V17.7891H17.4062ZM24.7305 13.9922C24.7188 15.9375 25.7441 17.8828 27.4609 18.6211L26.6875 19.6641C25.4688 19.1016 24.5781 17.9824 24.0859 16.5996C23.5996 18.0879 22.6855 19.3066 21.4023 19.9102L20.6055 18.8203C22.3691 18.0586 23.4004 16.0371 23.4062 13.9922V12.3047H24.7305V13.9922ZM28.2227 22.0547V11.4492H29.5352V22.0547H28.2227Z" fill="#004EB4"/>
<defs>
<filter id="filter0_d_430_1640" x="0" y="0" width="44" height="52.8395" filterUnits="userSpaceOnUse" color-interpolation-filters="sRGB">
<feFlood flood-opacity="0" result="BackgroundImageFix"/>
<feColorMatrix in="SourceAlpha" type="matrix" values="0 0 0 0 0 0 0 0 0 0 0 0 0 0 0 0 0 0 127 0" result="hardAlpha"/>
<feOffset dx="1" dy="2"/>
<feGaussianBlur stdDeviation="1"/>
<feComposite in2="hardAlpha" operator="out"/>
<feColorMatrix type="matrix" values="0 0 0 0 0 0 0 0 0 0 0 0 0 0 0 0 0 0 0.4 0"/>
<feBlend mode="normal" in2="BackgroundImageFix" result="effect1_dropShadow_430_1640"/>
<feBlend mode="normal" in="SourceGraphic" in2="effect1_dropShadow_430_1640" result="shape"/>
</filter>
</defs>
</svg>
