<svg width="44" height="53" viewBox="0 0 44 53" fill="none" xmlns="http://www.w3.org/2000/svg">
<g filter="url(#filter0_d_490_4334)">
<path d="M1 0.999999C1 0.447714 1.44772 0 2 0H40C40.5523 0 41 0.447715 41 1V47.8376C41 48.69 40.0018 49.1516 39.3524 48.5995L21.6476 33.5505C21.2742 33.2331 20.7258 33.2331 20.3524 33.5505L2.64765 48.5995C1.99817 49.1516 1 48.69 1 47.8376V0.999999Z" fill="#BCE1FF"/>
<path d="M1.5 0.999999C1.5 0.723857 1.72386 0.5 2 0.5H40C40.2761 0.5 40.5 0.723858 40.5 1V47.8376C40.5 48.2638 40.0009 48.4946 39.6762 48.2185L21.9715 33.1695C21.4113 32.6934 20.5887 32.6934 20.0285 33.1695L2.32383 48.2185C1.99908 48.4946 1.5 48.2638 1.5 47.8376V0.999999Z" stroke="#004EB4"/>
</g>
<path d="M9.37109 13.6055C9.37109 14.9238 10.2734 16.2129 11.9609 16.7344L11.293 17.7539C10.0918 17.3672 9.21875 16.5703 8.73242 15.5625C8.25781 16.6582 7.35547 17.5312 6.10156 17.9648L5.43359 16.9336C7.13867 16.3711 8.04688 15 8.05859 13.6055V13.3008H5.77344V12.2578H11.5977V13.3008H9.37109V13.6055ZM7.16797 21.832V18.4453H8.48047V20.7773H14.4688V21.832H7.16797ZM12.8633 19.1484V11.4609H14.1758V19.1484H12.8633ZM24.7812 11.4492V18.1055H23.5391V15.2227H22.5078V17.7539H21.2891V11.6602H22.5078V14.168H23.5391V11.4492H24.7812ZM15.6641 13.6172V12.5977H17.668V11.543H18.957V12.5977H20.9375V13.6172H15.6641ZM16.0391 15.8789C16.0273 14.7773 16.9883 14.0449 18.3125 14.0508C19.6602 14.0449 20.6094 14.7773 20.6211 15.8789C20.6094 16.9805 19.6602 17.707 18.3125 17.707C16.9883 17.707 16.0273 16.9805 16.0391 15.8789ZM17.1992 15.8789C17.1992 16.4238 17.6504 16.7695 18.3125 16.7695C18.9805 16.7695 19.4375 16.4238 19.4375 15.8789C19.4375 15.334 18.9805 14.9883 18.3125 14.9883C17.6504 14.9883 17.1992 15.334 17.1992 15.8789ZM17.5742 20.1445C17.5684 18.9258 18.9395 18.2402 21.207 18.2344C23.4688 18.2402 24.834 18.9258 24.8398 20.1445C24.834 21.3398 23.4688 22.0312 21.207 22.0312C18.9395 22.0312 17.5684 21.3398 17.5742 20.1445ZM18.875 20.1445C18.8691 20.7246 19.6953 21.041 21.207 21.0352C22.7129 21.041 23.5215 20.7246 23.5273 20.1445C23.5215 19.5293 22.7129 19.2188 21.207 19.2305C19.6953 19.2188 18.8691 19.5293 18.875 20.1445ZM35.75 16.3125V17.3672H31.5547V18.2578C33.4473 18.3809 34.5723 19.0371 34.5781 20.1328C34.5723 21.3516 33.1895 22.0312 30.9102 22.0312C28.5957 22.0312 27.2188 21.3516 27.2188 20.1328C27.2188 19.0371 28.3438 18.375 30.2656 18.252V17.3672H26.0938V16.3125H35.75ZM26.5625 14.8008C28.5078 14.6191 29.7793 13.8281 29.9961 12.9609H26.9727V11.918H34.8828V12.9609H31.8301C32.041 13.834 33.3008 14.6191 35.293 14.8008L34.8359 15.832C32.9082 15.6328 31.4844 14.8652 30.9102 13.793C30.3359 14.8652 28.9297 15.6328 27.0078 15.832L26.5625 14.8008ZM28.543 20.1328C28.5371 20.7188 29.3691 21.041 30.9102 21.0352C32.4277 21.041 33.2656 20.7188 33.2773 20.1328C33.2656 19.5469 32.4277 19.2363 30.9102 19.2305C29.3691 19.2363 28.5371 19.5469 28.543 20.1328Z" fill="#007EE5"/>
<defs>
<filter id="filter0_d_490_4334" x="0" y="0" width="44" height="52.8395" filterUnits="userSpaceOnUse" color-interpolation-filters="sRGB">
<feFlood flood-opacity="0" result="BackgroundImageFix"/>
<feColorMatrix in="SourceAlpha" type="matrix" values="0 0 0 0 0 0 0 0 0 0 0 0 0 0 0 0 0 0 127 0" result="hardAlpha"/>
<feOffset dx="1" dy="2"/>
<feGaussianBlur stdDeviation="1"/>
<feComposite in2="hardAlpha" operator="out"/>
<feColorMatrix type="matrix" values="0 0 0 0 0 0 0 0 0 0 0 0 0 0 0 0 0 0 0.4 0"/>
<feBlend mode="normal" in2="BackgroundImageFix" result="effect1_dropShadow_490_4334"/>
<feBlend mode="normal" in="SourceGraphic" in2="effect1_dropShadow_490_4334" result="shape"/>
</filter>
</defs>
</svg>
