<svg width="80" height="80" viewBox="0 0 80 80" fill="none" xmlns="http://www.w3.org/2000/svg">
<rect width="80" height="80" rx="20" fill="white"/>
<circle cx="28" cy="44" r="4.16667" fill="#0091F9" stroke="black" stroke-width="1.66667"/>
<path d="M65.4987 59.8334V61.6852C65.4987 62.0432 65.2085 62.3334 64.8505 62.3334H47.8135C47.4556 62.3334 47.1654 62.0432 47.1654 61.6852V59.8334C47.1654 54.7708 51.2694 50.6667 56.332 50.6667C61.3946 50.6667 65.4987 54.7708 65.4987 59.8334Z" fill="#0091F9" stroke="black" stroke-width="1.66667"/>
<path d="M37.1667 59.8334V61.6852C37.1667 62.0432 36.8765 62.3334 36.5185 62.3334H19.4815C19.1235 62.3334 18.8333 62.0432 18.8333 61.6852V59.8334C18.8333 54.7708 22.9374 50.6667 28 50.6667C33.0626 50.6667 37.1667 54.7708 37.1667 59.8334Z" fill="#0091F9" stroke="black" stroke-width="1.66667"/>
<circle cx="56.332" cy="44" r="4.16667" fill="#0091F9" stroke="black" stroke-width="1.66667"/>
<circle cx="43" cy="40.6666" r="4.16667" fill="white" stroke="black" stroke-width="1.66667"/>
<path d="M52.1667 57.3334V64C52.1667 64.4603 51.7936 64.8334 51.3333 64.8334H34.6667C34.2064 64.8334 33.8333 64.4603 33.8333 64V57.3334C33.8333 52.2708 37.9374 48.1667 43 48.1667C48.0626 48.1667 52.1667 52.2708 52.1667 57.3334Z" fill="white" stroke="black" stroke-width="1.66667"/>
<path d="M48.5545 31.5L55.4704 35.6667L52.0125 29.8333C53.7414 28.1667 56.3349 26.5 56.3349 21.5C56.3349 16.5 50.2835 14 45.961 14C41.6386 14 34.7227 15.6108 34.7227 22.3333C34.7226 29 39.9096 30.6667 48.5545 31.5Z" stroke="black" stroke-width="1.66667"/>
<path d="M40.5 19.8333H50.5" stroke="black" stroke-width="1.66667" stroke-linecap="round"/>
<path d="M41.332 24H47.9987" stroke="black" stroke-width="1.66667" stroke-linecap="round"/>
<path d="M35.7578 29.8333C34.9245 31.2222 32.2578 34.1667 28.2578 34.8333L26.5912 37.3333L24.0912 34.8333C22.1467 34.8333 17.5912 34.1667 14.9245 31.5C11.5912 28.1667 13.2578 24 14.9245 22.3333C16.5912 20.6667 19.0912 19 24.9245 19C26.0356 19 28.0912 19.1667 30.7578 19.8333" stroke="black" stroke-width="1.66667" stroke-linecap="round"/>
</svg>
