<svg width="80" height="80" viewBox="0 0 80 80" fill="none" xmlns="http://www.w3.org/2000/svg">
<rect width="80" height="80" rx="20" fill="white"/>
<path d="M17.5547 63.7002L17.5547 37.0336" stroke="black" stroke-width="1.66667"/>
<path d="M35.056 64.5336H45.056C45.9765 64.5336 46.7227 63.7874 46.7227 62.8669V42.8669C46.7227 41.9464 45.9765 41.2002 45.056 41.2002H35.056C34.1355 41.2002 33.3893 41.9464 33.3893 42.8669V62.8669C33.3893 63.7874 34.1355 64.5336 35.056 64.5336Z" stroke="black" stroke-width="1.66667"/>
<rect x="42.1445" y="54.5338" width="1.66667" height="1.66667" rx="0.833333" fill="black"/>
<path d="M62.5547 37.0336V63.7002" stroke="black" stroke-width="1.66667"/>
<rect x="15.888" y="64.5337" width="48.3333" height="2.5" stroke="black" stroke-width="1.66667"/>
<path d="M60.889 15.3669H53.389V22.8669L60.0557 28.7002L60.889 15.3669Z" fill="#0091F9"/>
<path d="M39.2223 13.7002L14.2223 34.5336L12.5557 35.3669V37.8669L15.0557 38.7002L38.389 19.5336H41.7223L65.0557 38.7002L66.7223 37.8669L67.5557 35.3669L40.889 13.7002H39.2223Z" fill="#0091F9"/>
<path fill-rule="evenodd" clip-rule="evenodd" d="M37.4237 13.9365L17.0337 30.5506L17.0134 30.5675L12.7103 34.2559C11.516 35.2795 11.3212 37.0543 12.265 38.3126C13.254 39.6313 15.1247 39.8985 16.4433 38.9095L18.0691 37.6902L38.4765 21.0619C39.396 20.3127 40.7154 20.3127 41.6349 21.0619L62.0423 37.6902L63.6681 38.9095C64.9867 39.8985 66.8574 39.6313 67.8464 38.3126C68.7901 37.0543 68.5953 35.2795 67.4011 34.2559L63.1024 30.5713L63.0821 30.5542L61.7223 29.4463V15.3669C61.7223 14.4464 60.9762 13.7002 60.0557 13.7002H54.2223C53.3019 13.7002 52.5557 14.4464 52.5557 15.3669V21.9771L42.6877 13.9365C41.1552 12.6878 38.9562 12.6878 37.4237 13.9365ZM41.6349 15.2286C40.7154 14.4794 39.396 14.4794 38.4765 15.2286L18.0898 31.84L13.7949 35.5213C13.2676 35.9733 13.1816 36.757 13.5983 37.3126C14.035 37.8949 14.861 38.0129 15.4433 37.5762L17.0423 36.3769L37.4237 19.7699C38.9562 18.5212 41.1552 18.5212 42.6877 19.7699L63.0691 36.377L64.6681 37.5762C65.2503 38.0129 66.0764 37.8949 66.5131 37.3126C66.9298 36.757 66.8438 35.9733 66.3164 35.5213L62.0208 31.8394L41.6349 15.2286ZM54.2223 15.3669L60.0557 15.3669V27.8297L54.2223 23.2927V15.3669Z" fill="black"/>
</svg>
