<svg width="80" height="80" viewBox="0 0 80 80" fill="none" xmlns="http://www.w3.org/2000/svg">
<rect width="80" height="80" rx="20" fill="white"/>
<path d="M38.6925 42.488L34.0708 69.4483C33.9336 70.2484 33.2399 70.8333 32.4281 70.8333H23.158C21.9284 70.8333 21.1222 69.5475 21.6577 68.4407L33 45L36.6904 38.3573C36.9844 37.8282 37.5421 37.5 38.1473 37.5H41.9926C42.612 37.5 43.1803 37.8435 43.4683 38.3919L59.2183 68.3919C59.8009 69.5017 58.996 70.8333 57.7426 70.8333H46.9053C46.0934 70.8333 45.3997 70.2484 45.2626 69.4483L40.6408 42.488C40.5595 42.0135 40.1481 41.6667 39.6667 41.6667C39.1853 41.6667 38.7739 42.0135 38.6925 42.488Z" fill="#0091F9"/>
<path d="M20.5 70.8333L36.2146 38.4392C36.4933 37.8648 37.0756 37.5 37.7141 37.5H42.4584C43.0846 37.5 43.658 37.851 43.9427 38.4087L60.5 70.8333" stroke="black" stroke-width="1.66667" stroke-linecap="round"/>
<path d="M33.832 70.8333L38.6912 42.488C38.7726 42.0135 39.184 41.6666 39.6654 41.6666V41.6666C40.1468 41.6666 40.5582 42.0135 40.6395 42.488L45.4987 70.8333" stroke="black" stroke-width="1.66667" stroke-linecap="round"/>
<path d="M34.6667 22.5H44.6667C45.5871 22.5 46.3422 21.7455 46.1281 20.8503C45.5881 18.5929 43.8692 15.8334 39.6667 15.8334C35.4642 15.8334 33.7452 18.5929 33.2052 20.8503C32.9911 21.7455 33.7462 22.5 34.6667 22.5Z" stroke="black" stroke-width="1.66667" stroke-linecap="round"/>
<path d="M39.668 15.8333V10" stroke="black" stroke-width="1.66667" stroke-linecap="round"/>
<path d="M33.8333 25.8334L30.5 29.1667" stroke="black" stroke-width="1.66667" stroke-linecap="round"/>
<path d="M45.4987 25.8334L48.832 29.1667" stroke="black" stroke-width="1.66667" stroke-linecap="round"/>
<path d="M39.668 25.8334V30.8334" stroke="black" stroke-width="1.66667" stroke-linecap="round"/>
<path d="M57.9987 61.6666H60.9082C61.6523 61.6666 62.3063 61.1733 62.5107 60.4578L65.2293 50.9429C65.3956 50.3609 65.2333 49.7345 64.8053 49.3065L60.6808 45.182C60.2283 44.7296 59.4559 44.9347 59.2875 45.552L57.5003 52.1052C57.3026 52.8303 56.644 53.3333 55.8924 53.3333H53.832" stroke="black" stroke-width="1.66667" stroke-linecap="round"/>
<path d="M62.168 59.1667H57.168" stroke="black" stroke-width="1.66667" stroke-linecap="round"/>
<path d="M26.3346 53.3333H22.701C21.9065 53.3333 21.2225 52.7726 21.0667 51.9935L19.9733 46.5269C19.8428 45.8742 19.0376 45.6304 18.5669 46.101L15.3474 49.3205C14.9269 49.7411 14.7623 50.3538 14.9156 50.9285L17.6714 61.2628C17.8659 61.9924 18.5267 62.5 19.2818 62.5H22.168" stroke="black" stroke-width="1.66667" stroke-linecap="round"/>
<path d="M22.168 59.1667H17.168" stroke="black" stroke-width="1.66667" stroke-linecap="round"/>
<path d="M26.332 50.8333H21.332" stroke="black" stroke-width="1.66667" stroke-linecap="round"/>
<path d="M28.8333 48.3333H26.033C25.2385 48.3333 24.5545 47.7726 24.3987 46.9935L23.1563 40.7815C23.0575 40.2873 23.1876 39.7749 23.5102 39.3877L26.6751 35.5899C26.8617 35.3659 27.2257 35.4726 27.2619 35.762L27.8175 40.2067C27.9218 41.0408 28.6308 41.6667 29.4713 41.6667H32.1667" stroke="black" stroke-width="1.66667" stroke-linecap="round"/>
<path d="M33 39.1666H28" stroke="black" stroke-width="1.66667" stroke-linecap="round"/>
<path d="M29.668 45.8333H24.668" stroke="black" stroke-width="1.66667" stroke-linecap="round"/>
<path d="M53 50.8333H57.1667" stroke="black" stroke-width="1.66667" stroke-linecap="round"/>
<path d="M51.3333 48.3333H53.3003C54.0948 48.3333 54.7788 47.7726 54.9346 46.9935L56.177 40.7815C56.2759 40.2873 56.1458 39.7749 55.8231 39.3877L52.904 35.8849C52.624 35.5489 52.078 35.7089 52.0238 36.1429L51.3881 41.2287C51.3568 41.4789 51.1441 41.6667 50.8919 41.6667H48" stroke="black" stroke-width="1.66667" stroke-linecap="round"/>
<path d="M51.3346 39.1666H47.168" stroke="black" stroke-width="1.66667" stroke-linecap="round"/>
<path d="M54.6667 45.8333H50.5" stroke="black" stroke-width="1.66667" stroke-linecap="round"/>
</svg>
