<svg width="80" height="80" viewBox="0 0 80 80" fill="none" xmlns="http://www.w3.org/2000/svg">
<rect width="80" height="80" rx="20" fill="white"/>
<path d="M54.9983 42.6691C54.4871 42.6691 53.4648 43.2824 53.4648 45.736C53.4648 48.1895 54.4871 48.8029 54.9983 48.8029" stroke="#222222" stroke-width="1.66667" stroke-linecap="round"/>
<path d="M24.3359 46.233V43.4357H27.4028V46.233C27.4028 46.3569 27.2725 46.4374 27.1616 46.382L25.9439 45.7732C25.897 45.7497 25.8418 45.7497 25.7949 45.7732L24.5771 46.382C24.4663 46.4374 24.3359 46.3569 24.3359 46.233Z" fill="#222222"/>
<path d="M22.9952 38.7688C22.0205 38.7688 20.6436 39.1245 19.4744 40.202C18.232 41.347 17.3698 43.1781 17.3698 45.736C17.3698 48.2939 18.232 50.1249 19.4744 51.27C20.6436 52.3475 22.0205 52.7031 22.9952 52.7031H55.581C56.7504 52.7031 57.3728 51.5775 57.3728 50.643C57.3728 49.7085 56.7504 48.5829 55.581 48.5829H22.9952C22.6927 48.5829 22.1526 48.4483 21.7239 48.0533C21.3691 47.7263 20.9533 47.1039 20.9533 45.736C20.9533 44.3681 21.3691 43.7457 21.7239 43.4187C22.1526 43.0236 22.6927 42.889 22.9952 42.889H55.581C56.7504 42.889 57.3728 41.7634 57.3728 40.8289C57.3728 39.8944 56.7504 38.7688 55.581 38.7688H22.9952Z" fill="white" stroke="#222222" stroke-width="1.66667" stroke-linecap="round"/>
<path d="M51.9358 27.868C51.4246 27.868 50.4023 28.4814 50.4023 30.9349C50.4023 33.3884 51.4246 34.0018 51.9358 34.0018" stroke="#222222" stroke-width="1.66667" stroke-linecap="round"/>
<path d="M21.2656 31.4319V28.6346H24.3325V31.4319C24.3325 31.5558 24.2021 31.6364 24.0913 31.5809L22.8736 30.9721C22.8267 30.9486 22.7715 30.9486 22.7245 30.9721L21.5068 31.5809C21.396 31.6364 21.2656 31.5558 21.2656 31.4319Z" fill="#222222"/>
<path d="M19.9249 23.9678C18.9502 23.9678 17.5733 24.3234 16.4041 25.4009C15.1616 26.5459 14.2995 28.377 14.2995 30.9349C14.2995 33.4928 15.1616 35.3238 16.4041 36.4689L16.9688 35.8561L16.4041 36.4689C17.5733 37.5464 18.9502 37.902 19.9249 37.902H52.5107C53.6801 37.902 54.3025 36.7765 54.3025 35.8419C54.3025 34.9074 53.6801 33.7818 52.5107 33.7818H19.9249C19.6224 33.7818 19.0823 33.6473 18.6536 33.2522C18.2988 32.9252 17.883 32.3028 17.883 30.9349C17.883 29.567 18.2988 28.9446 18.6536 28.6176C19.0823 28.2225 19.6224 28.0879 19.9249 28.0879H52.5107C53.6801 28.0879 54.3025 26.9624 54.3025 26.0278C54.3025 25.0933 53.6801 23.9678 52.5107 23.9678H19.9249Z" fill="#0091F9" stroke="#222222" stroke-width="1.66667" stroke-linecap="round"/>
<path d="M56.5374 13.0669C56.0262 13.0669 55.0039 13.6803 55.0039 16.1338C55.0039 18.5873 56.0262 19.2007 56.5374 19.2007" stroke="#222222" stroke-width="1.66667" stroke-linecap="round"/>
<path d="M25.8672 16.6309V13.8336H28.9341V16.6309C28.9341 16.7547 28.8037 16.8353 28.6929 16.7799L27.4752 16.1711C27.4283 16.1476 27.373 16.1476 27.3261 16.1711L26.1084 16.7799C25.9976 16.8353 25.8672 16.7547 25.8672 16.6309Z" fill="#222222"/>
<path d="M24.5225 9.16667C23.5479 9.16667 22.1709 9.52231 21.0017 10.5998C19.7593 11.7449 18.8971 13.5759 18.8971 16.1338C18.8971 18.6917 19.7593 20.5228 21.0017 21.6678L21.5665 21.055L21.0017 21.6678C22.1709 22.7453 23.5479 23.101 24.5225 23.101H57.1084C58.2777 23.101 58.9001 21.9754 58.9001 21.0409C58.9001 20.1063 58.2777 18.9808 57.1084 18.9808H24.5225C24.2201 18.9808 23.6799 18.8462 23.2512 18.4511C22.8964 18.1241 22.4806 17.5017 22.4806 16.1338C22.4806 14.7659 22.8964 14.1435 23.2512 13.8165C23.6799 13.4214 24.2201 13.2869 24.5225 13.2869H57.1084C58.2777 13.2869 58.9001 12.1613 58.9001 11.2268C58.9001 10.2923 58.2777 9.16667 57.1084 9.16667H24.5225Z" fill="white" stroke="#222222" stroke-width="1.66667" stroke-linecap="round"/>
<rect x="9.83333" y="52.7031" width="59.6714" height="6.0006" rx="0.833333" stroke="#222222" stroke-width="1.66667"/>
<path d="M56.9782 66.3709H62.8692L59.1683 58.8369H53.2772L56.9782 66.3709Z" stroke="#222222" stroke-width="1.66667" stroke-linecap="round"/>
<path d="M22.3617 66.3709H16.4706L20.1716 58.8369H26.0626L22.3617 66.3709Z" stroke="#222222" stroke-width="1.66667" stroke-linecap="round"/>
</svg>
