<svg width="80" height="80" viewBox="0 0 80 80" fill="none" xmlns="http://www.w3.org/2000/svg">
<rect width="80" height="80" rx="20" fill="white"/>
<path d="M16.9219 58.5002L16.9219 29" stroke="black" stroke-width="1.66667"/>
<path d="M41 59H30V38H41V59Z" stroke="black" stroke-width="1.66667"/>
<rect x="36.9219" y="48.1669" width="1.66667" height="1.66667" rx="0.833333" fill="black"/>
<path d="M42.7578 59.3336H15.2578V63.5002H45.2578" stroke="black" stroke-width="1.66667" stroke-linecap="round"/>
<path d="M59.4245 41.8335C59.4245 42.2938 59.7976 42.6669 60.2578 42.6669C60.718 42.6669 61.0911 42.2938 61.0911 41.8335H59.4245ZM59.4245 29V41.8335H61.0911V29H59.4245Z" fill="black"/>
<path fill-rule="evenodd" clip-rule="evenodd" d="M43.6504 16.6668H47.154L50.0032 25.0001H45.075L43.6504 16.6668ZM42.6536 15.0001C42.6462 15 42.6387 15 42.6313 15.0001H34.1039H34.0816H29.8344C29.8247 15 29.815 15 29.8053 15.0001H25.5614C25.5516 15 25.5419 15 25.5322 15.0001H19.9853C19.4026 15.0001 18.8698 15.3211 18.6092 15.8293L14.1644 24.496C13.6529 25.4933 14.3968 26.6668 15.5406 26.6668H20.3962C20.41 26.6671 20.4237 26.6671 20.4374 26.6668H26.3771C26.3931 26.6672 26.4091 26.6672 26.425 26.6668H32.3671C32.3793 26.667 32.3914 26.667 32.4035 26.6668H38.3555L38.3676 26.6669L38.3797 26.6668H44.3318C44.3438 26.667 44.3559 26.667 44.3681 26.6668H51.1651C51.181 26.6672 51.197 26.6672 51.213 26.6668H58.0073C58.021 26.6671 58.0348 26.6671 58.0485 26.6668H62.0494C63.1931 26.6668 63.937 25.4933 63.4255 24.496L58.9807 15.8293C58.7201 15.3211 58.1874 15.0001 57.6046 15.0001H52.9126C52.9029 15 52.8932 15 52.8834 15.0001H47.7848C47.7751 15 47.7654 15 47.7556 15.0001H42.6536ZM43.3419 25.0001H39.2224V16.6668H41.9173L43.3419 25.0001ZM37.5128 16.6668H34.8179L33.3933 25.0001H37.5128V16.6668ZM27.5869 25.0001H31.6602L33.0848 16.6668H30.4361L27.5869 25.0001ZM52.3704 16.6668H48.956L51.8052 25.0001H56.6442L52.3704 16.6668ZM28.6341 16.6668L25.7849 25.0001H21.8006L26.0744 16.6668H28.6341ZM20.091 16.6668H24.1631L19.8893 25.0001H15.8172L20.091 16.6668ZM58.5555 25.0001L54.2817 16.6668H57.4989L61.7728 25.0001H58.5555Z" fill="black"/>
<path d="M21.9245 25.8335H15.2578C15.2578 26.9446 15.9245 29.1668 18.5911 29.1668C21.2578 29.1668 21.9245 26.9446 21.9245 25.8335Z" stroke="black" stroke-width="1.66667" stroke-linecap="round"/>
<path d="M28.5885 25.8335H21.9219C21.9219 26.9446 22.5885 29.1668 25.2552 29.1668C27.9219 29.1668 28.5885 26.9446 28.5885 25.8335Z" stroke="black" stroke-width="1.66667" stroke-linecap="round"/>
<path d="M35.2565 25.8335H28.5898C28.5898 26.9446 29.2565 29.1668 31.9232 29.1668C34.5898 29.1668 35.2565 26.9446 35.2565 25.8335Z" stroke="black" stroke-width="1.66667" stroke-linecap="round"/>
<path d="M41.9245 25.8335H35.2578C35.2578 26.9446 35.9245 29.1668 38.5911 29.1668C41.2578 29.1668 41.9245 26.9446 41.9245 25.8335Z" stroke="black" stroke-width="1.66667" stroke-linecap="round"/>
<path d="M48.5885 25.8335H41.9219C41.9219 26.9446 42.5885 29.1668 45.2552 29.1668C47.9219 29.1668 48.5885 26.9446 48.5885 25.8335Z" stroke="black" stroke-width="1.66667" stroke-linecap="round"/>
<path d="M55.2565 25.8335H48.5898C48.5898 26.9446 49.2565 29.1668 51.9232 29.1668C54.5898 29.1668 55.2565 26.9446 55.2565 25.8335Z" stroke="black" stroke-width="1.66667" stroke-linecap="round"/>
<path d="M61.9245 25.8335H55.2578C55.2578 26.9446 55.9245 29.1668 58.5911 29.1668C61.2578 29.1668 61.9245 26.9446 61.9245 25.8335Z" stroke="black" stroke-width="1.66667" stroke-linecap="round"/>
<circle cx="56.0911" cy="54.3336" r="10.8333" stroke="black" stroke-width="1.66667"/>
<path fill-rule="evenodd" clip-rule="evenodd" d="M51.065 49.1316C50.9533 48.6851 50.5009 48.4136 50.0544 48.5253C49.6079 48.6369 49.3364 49.0893 49.4481 49.5358L50.4392 53.5004H49.4232C48.9629 53.5004 48.5898 53.8735 48.5898 54.3337C48.5898 54.794 48.9629 55.1671 49.4232 55.1671H50.8559L51.8092 58.9806C52.0519 59.9512 53.4117 60.0034 53.7281 59.0543L55.0238 55.1671H57.1559L58.4516 59.0543C58.768 60.0034 60.1278 59.9511 60.3704 58.9806L61.3238 55.1671H62.7565C63.2167 55.1671 63.5898 54.794 63.5898 54.3337C63.5898 53.8735 63.2167 53.5004 62.7565 53.5004H61.7405L62.7316 49.5358C62.8432 49.0893 62.5718 48.6369 62.1253 48.5253C61.6788 48.4136 61.2263 48.6851 61.1147 49.1316L60.0225 53.5004H58.3571L57.1966 50.0189C56.8421 48.9552 55.3376 48.9552 54.983 50.0189L53.8225 53.5004H52.1572L51.065 49.1316ZM52.5738 55.1671L52.8709 56.3553L53.267 55.1671H52.5738ZM55.5794 53.5004H56.6003L56.0898 51.9689L55.5794 53.5004ZM58.9127 55.1671L59.3088 56.3553L59.6059 55.1671H58.9127Z" fill="#016DD3"/>
</svg>
