<svg width="80" height="80" viewBox="0 0 80 80" fill="none" xmlns="http://www.w3.org/2000/svg">
<rect width="80" height="80" rx="20" fill="white"/>
<path d="M68.3346 43.3333H33.3346C32.4142 43.3333 31.668 44.0795 31.668 45C31.668 45.9205 32.4142 46.6666 33.3346 46.6666H68.3346C69.2551 46.6666 70.0013 45.9205 70.0013 45C70.0013 44.0795 69.2551 43.3333 68.3346 43.3333Z" stroke="black" stroke-width="1.66667"/>
<circle cx="24.1667" cy="27.5" r="3.33333" stroke="black" stroke-width="1.66667"/>
<path d="M18.332 47.5V35C18.332 34.0796 19.0782 33.3334 19.9987 33.3334H24.8884C25.4738 33.3334 26.0163 33.6405 26.3175 34.1425L27.8465 36.6909C28.1477 37.1929 28.6902 37.5 29.2757 37.5H33.7487C34.4391 37.5 34.9987 38.0597 34.9987 38.75C34.9987 39.4404 34.4391 40 33.7487 40H27.2606C26.8859 40 26.533 39.8236 26.3082 39.5238C25.6218 38.6086 24.1654 39.0941 24.1654 40.2381V45.6593C24.1654 45.7598 24.238 45.8455 24.337 45.862L29.0256 46.6434C29.1177 46.6588 29.2056 46.6935 29.2833 46.7453C30.8031 47.7585 31.8357 49.3556 32.136 51.1573L34.1592 63.2967C34.1624 63.3159 34.1476 63.3334 34.1282 63.3334H32.6352C32.0602 63.3334 31.5539 62.9546 31.3917 62.4029L27.8506 50.3631C27.642 49.6538 26.991 49.1667 26.2516 49.1667H19.9987C19.0782 49.1667 18.332 48.4205 18.332 47.5Z" stroke="black" stroke-width="1.66667" stroke-linecap="round"/>
<path d="M36.668 46.6667V62.0834C36.668 62.7737 37.2276 63.3334 37.918 63.3334C38.6083 63.3334 39.168 62.7737 39.168 62.0834V46.6667H36.668Z" stroke="black" stroke-width="1.66667" stroke-linecap="round"/>
<path d="M63.332 46.6667V62.0834C63.332 62.7737 63.8917 63.3334 64.582 63.3334C65.2724 63.3334 65.832 62.7737 65.832 62.0834V46.6667H63.332Z" stroke="black" stroke-width="1.66667" stroke-linecap="round"/>
<rect x="43.332" y="20" width="3.33333" height="13.3333" rx="0.333333" fill="#016DD3"/>
<rect x="48.332" y="23.3334" width="3.33333" height="10" rx="0.333333" fill="#016DD3"/>
<rect x="53.332" y="26.6666" width="3.33333" height="6.66667" rx="0.333333" fill="#016DD3"/>
<path d="M25 49.1667H17.1997C16.4052 49.1667 15.7212 48.6059 15.5654 47.8269L12.6961 33.4805C12.5821 32.9104 12.0815 32.5 11.5 32.5V32.5C10.7263 32.5 10.1481 33.2111 10.3059 33.9685L13.8903 51.1733C14.0513 51.9461 14.7324 52.5 15.5219 52.5H26.6667" stroke="black" stroke-width="1.66667" stroke-linecap="round"/>
<path d="M14.6057 62.6346L17.5013 52.5H20.0013L16.917 63.295C16.7696 63.8109 16.298 64.1667 15.7614 64.1667C14.9628 64.1667 14.3863 63.4024 14.6057 62.6346Z" stroke="black" stroke-width="1.66667" stroke-linecap="round"/>
<path d="M28.7302 62.6346L25.8346 52.5H23.3346L26.4189 63.295C26.5663 63.8109 27.0379 64.1667 27.5746 64.1667C28.3731 64.1667 28.9496 63.4024 28.7302 62.6346Z" stroke="black" stroke-width="1.66667" stroke-linecap="round"/>
<path d="M43.332 35H61.6654" stroke="black" stroke-width="1.66667" stroke-linecap="round"/>
<rect x="39.1654" y="15.8333" width="30" height="21.6667" rx="0.833333" stroke="black" stroke-width="1.66667"/>
<path d="M34.2539 42.4277L40.7445 40.9056" stroke="black" stroke-width="1.66667" stroke-linecap="round"/>
<path d="M50 41.6666H58.3333" stroke="black" stroke-width="1.66667" stroke-linecap="round"/>
<path d="M50 38.3333L51.2868 42.1937C51.5136 42.8743 52.1505 43.3333 52.8679 43.3333H55.4095C56.1536 43.3333 56.8076 42.84 57.012 42.1245L58.3333 37.5" stroke="black" stroke-width="1.66667" stroke-linecap="round"/>
<path d="M40.832 41.6666L41.6654 43.3333" stroke="black" stroke-linecap="round"/>
</svg>
