<svg width="80" height="80" viewBox="0 0 80 80" fill="none" xmlns="http://www.w3.org/2000/svg">
<rect width="80" height="80" rx="20" fill="white"/>
<circle cx="57.1193" cy="33.3079" r="6.78202" stroke="black" stroke-width="1.66667"/>
<path d="M13.9687 52L13.9688 27.3848" stroke="black" stroke-width="1.66667"/>
<path d="M30.0429 51.9232H19.043V33.3079H30.0429V51.9232Z" stroke="black" stroke-width="1.66667"/>
<path d="M46.1211 49.2821C46.1211 45.6002 49.1059 42.6155 52.7878 42.6155H61.4543C65.1362 42.6155 68.121 45.6002 68.121 49.2821V67.1667C68.121 67.6269 67.7479 68 67.2877 68H46.9544C46.4942 68 46.1211 67.6269 46.1211 67.1667V49.2821Z" stroke="black" stroke-width="1.66667"/>
<path d="M47.8142 32.4617H33.4297V46.8462H43.5835" stroke="black" stroke-width="1.66667" stroke-linecap="round"/>
<path d="M38.5072 34.1539H40.3204C40.7209 34.1539 41.0457 34.4786 41.0457 34.8792C41.0457 35.2798 40.7209 35.6045 40.3204 35.6045H39.2325C38.2311 35.6045 37.4193 36.4163 37.4193 37.4177V38.5056C37.4193 38.9061 37.0946 39.2308 36.694 39.2308C36.2935 39.2308 35.9688 38.9061 35.9688 38.5056V36.6924C35.9688 35.2904 37.1053 34.1539 38.5072 34.1539Z" fill="black"/>
<rect x="35.9688" y="40.077" width="1.6923" height="1.6923" rx="0.846151" fill="black"/>
<rect x="25.8125" y="42.6155" width="1.6923" height="1.6923" rx="0.846151" fill="black"/>
<path d="M43.5849 51.9232H12.2773V56.1539H43.5849" stroke="black" stroke-width="1.66667" stroke-linecap="round"/>
<path fill-rule="evenodd" clip-rule="evenodd" d="M27.0788 13.0001H31.3934H31.4141H40.0739C40.0808 13 40.0876 13 40.0945 13.0001H45.2739C45.2837 13 45.2935 13 45.3033 13.0001H50.4822C50.492 13 50.5018 13 50.5116 13.0001H55.2753C55.867 13.0001 56.4079 13.3261 56.6726 13.8421L61.1857 22.642C61.7051 23.6547 60.9498 24.8462 59.7884 24.8462H55.7267C55.7127 24.8466 55.6987 24.8466 55.6847 24.8462H48.7844C48.7681 24.8467 48.7518 24.8467 48.7356 24.8462H41.837C41.8242 24.8465 41.8115 24.8465 41.7989 24.8462H35.752L35.7413 24.8463L35.7305 24.8462H29.689C29.6764 24.8465 29.6637 24.8465 29.651 24.8462H23.6172C23.6009 24.8467 23.5847 24.8467 23.5683 24.8462H17.5365C17.5225 24.8466 17.5085 24.8466 17.4945 24.8462H12.5643C11.4029 24.8462 10.6476 23.6547 11.1669 22.642L15.6801 13.8421C15.9447 13.3261 16.4857 13.0001 17.0774 13.0001H22.7096C22.7194 13 22.7292 13 22.739 13.0001H27.0495C27.0592 13 27.069 13 27.0788 13.0001ZM42.5542 23.1539H47.5559L44.6629 14.6924H41.1077L42.5542 23.1539ZM39.3479 14.6924L40.7944 23.1539H36.6092V14.6924H39.3479ZM27.6899 14.6924H30.3802L28.9337 23.1539H24.7968L27.6899 14.6924ZM34.8733 23.1539H30.6935L32.14 14.6924H34.8733V23.1539ZM54.3007 23.1539H49.3856L46.4926 14.6924H49.9611L54.3007 23.1539ZM25.8601 14.6924L22.9671 23.1539H18.9205L23.2601 14.6924H25.8601ZM16.9798 23.1539L21.3194 14.6924H17.1847L12.8451 23.1539H16.9798ZM56.2414 23.1539L51.9018 14.6924H55.168L59.5076 23.1539H56.2414Z" fill="black"/>
<path d="M19.0465 24.0001H12.2773C12.2773 25.1283 12.9543 27.3847 15.6619 27.3847C18.3696 27.3847 19.0465 25.1283 19.0465 24.0001Z" stroke="black" stroke-width="1.66667" stroke-linecap="round"/>
<path d="M25.8122 24.0001H19.043C19.043 25.1283 19.7199 27.3847 22.4276 27.3847C25.1353 27.3847 25.8122 25.1283 25.8122 24.0001Z" stroke="black" stroke-width="1.66667" stroke-linecap="round"/>
<path d="M32.5817 24.0001H25.8125C25.8125 25.1283 26.4894 27.3847 29.1971 27.3847C31.9048 27.3847 32.5817 25.1283 32.5817 24.0001Z" stroke="black" stroke-width="1.66667" stroke-linecap="round"/>
<path d="M39.3551 24.0001H32.5859C32.5859 25.1283 33.2629 27.3847 35.9705 27.3847C38.6782 27.3847 39.3551 25.1283 39.3551 24.0001Z" stroke="black" stroke-width="1.66667" stroke-linecap="round"/>
<path d="M46.1208 24.0001H39.3516C39.3516 25.1283 40.0285 27.3847 42.7362 27.3847C45.4438 27.3847 46.1208 25.1283 46.1208 24.0001Z" stroke="black" stroke-width="1.66667" stroke-linecap="round"/>
<path d="M52.8903 24.0001H46.1211C46.1211 25.1283 46.798 27.3847 49.5057 27.3847C52.2134 27.3847 52.8903 25.1283 52.8903 24.0001Z" stroke="black" stroke-width="1.66667" stroke-linecap="round"/>
<path d="M59.6598 24.0001H52.8906C52.8906 24.3762 53.1351 24.395 53.7368 24.8463" stroke="black" stroke-width="1.66667" stroke-linecap="round"/>
<path d="M52.8925 24.0001H59.6618C59.6618 24.3762 60.414 24.0001 59.6618 24.8463" stroke="black" stroke-width="1.66667" stroke-linecap="round"/>
<path d="M52.8906 42.6155V49.3847" stroke="black" stroke-width="1.66667"/>
<path d="M61.3516 42.6155V49.3847" stroke="black" stroke-width="1.66667"/>
<path d="M51.828 48.5257H61.9661L61.9661 50.6795C61.9661 52.0603 63.0854 53.1795 64.4661 53.1795H65.5984V65.4744H48.6497V53.1795L49.328 53.1795C50.7087 53.1795 51.828 52.0603 51.828 50.6795L51.828 48.5257Z" fill="#0091F9" stroke="black" stroke-width="1.66667"/>
<path d="M60.5188 57.8462H53.724C53.2637 57.8462 52.8876 58.2201 52.9495 58.6761C53.1904 60.4512 54.2289 62.9231 57.1214 62.9231C60.0138 62.9231 61.0524 60.4512 61.2933 58.6761C61.3551 58.2201 60.979 57.8462 60.5188 57.8462Z" fill="white" stroke="black" stroke-width="1.66667" stroke-linecap="round"/>
</svg>
